<svg 
 xmlns="http://www.w3.org/2000/svg"
 xmlns:xlink="http://www.w3.org/1999/xlink"
 width="33px" height="30px">
<path fill-rule="evenodd"  fill="rgb(49, 213, 202)"
 d="M27.183,11.308 C27.352,11.710 27.153,12.169 26.739,12.333 C26.739,12.333 18.830,15.469 18.826,15.470 C18.655,15.543 18.477,15.591 18.297,15.591 C17.858,15.591 17.427,15.383 17.168,15.000 L13.244,9.196 C12.835,8.591 13.008,7.779 13.631,7.382 C14.254,6.986 15.090,7.154 15.499,7.758 L19.410,13.542 L26.128,10.877 C26.540,10.712 27.013,10.906 27.183,11.308 ZM18.295,0.000 C13.325,0.000 8.925,2.410 6.262,6.088 C6.813,6.437 7.351,6.916 7.871,7.532 C9.857,4.647 13.069,2.622 16.786,2.187 L18.295,4.668 L19.805,2.187 C25.518,2.856 30.059,7.266 30.748,12.815 L28.193,14.281 L30.748,15.748 C30.287,19.457 28.100,22.651 24.997,24.565 C25.195,25.003 25.306,25.450 25.325,25.912 C25.340,26.249 25.304,26.567 25.232,26.870 C29.852,24.459 32.999,19.721 32.999,14.281 C32.999,6.407 26.404,0.000 18.295,0.000 ZM22.048,23.520 C18.658,20.874 17.710,22.175 16.172,23.668 C15.099,24.711 12.381,22.533 10.035,20.254 C7.689,17.975 5.446,15.336 6.519,14.293 C8.058,12.800 9.396,11.878 6.672,8.587 C3.947,5.295 2.132,7.822 0.642,9.270 C-1.078,10.940 0.551,17.163 6.884,23.315 C13.218,29.466 19.626,31.047 21.345,29.378 C22.834,27.930 25.438,26.167 22.048,23.520 Z"/>
</svg>