<svg 
 xmlns="http://www.w3.org/2000/svg"
 xmlns:xlink="http://www.w3.org/1999/xlink"
 width="32px" height="32px">
<path fill-rule="evenodd"  fill="rgb(234, 39, 37)"
 d="M27.322,4.680 C21.078,-1.562 10.922,-1.562 4.681,4.678 C-1.562,10.918 -1.561,21.072 4.681,27.313 C10.922,33.553 21.078,33.553 27.321,27.312 C33.562,21.072 33.562,10.919 27.322,4.680 ZM25.574,25.567 C20.296,30.844 11.706,30.845 6.427,25.568 C1.146,20.289 1.147,11.701 6.427,6.424 C11.706,1.147 20.295,1.146 25.575,6.424 C30.854,11.702 30.853,20.290 25.574,25.567 ZM23.239,22.322 C23.438,22.781 23.226,23.313 22.767,23.512 C22.308,23.711 21.775,23.499 21.577,23.040 C20.704,21.022 18.640,19.718 16.321,19.718 C13.946,19.718 11.870,21.021 11.033,23.038 C10.888,23.386 10.551,23.596 10.196,23.596 C10.081,23.596 9.963,23.574 9.849,23.527 C9.388,23.335 9.169,22.805 9.361,22.344 C10.480,19.649 13.212,17.908 16.321,17.908 C19.363,17.909 22.079,19.641 23.239,22.322 ZM10.030,11.664 C10.030,10.632 10.867,9.794 11.900,9.794 C12.933,9.794 13.771,10.631 13.771,11.664 C13.771,12.698 12.933,13.535 11.900,13.535 C10.867,13.535 10.030,12.698 10.030,11.664 ZM18.513,11.664 C18.513,10.632 19.352,9.794 20.386,9.794 C21.418,9.794 22.256,10.631 22.256,11.664 C22.256,12.698 21.419,13.535 20.386,13.535 C19.352,13.535 18.513,12.698 18.513,11.664 Z"/>
</svg>