<svg 
 xmlns="http://www.w3.org/2000/svg"
 xmlns:xlink="http://www.w3.org/1999/xlink"
 width="30px" height="30px">
<path fill-rule="evenodd"  fill="rgb(117, 183, 59)"
 d="M29.939,23.246 C29.853,22.991 29.315,22.614 28.319,22.117 C28.050,21.961 27.666,21.748 27.168,21.478 C26.671,21.208 26.220,20.959 25.816,20.732 C25.410,20.504 25.030,20.284 24.675,20.072 C24.619,20.028 24.440,19.904 24.142,19.698 C23.844,19.492 23.593,19.340 23.386,19.240 C23.180,19.141 22.978,19.091 22.778,19.091 C22.494,19.091 22.139,19.293 21.713,19.698 C21.287,20.103 20.897,20.543 20.541,21.020 C20.186,21.496 19.810,21.936 19.413,22.341 C19.015,22.746 18.688,22.948 18.432,22.948 C18.304,22.948 18.144,22.913 17.953,22.842 C17.761,22.771 17.615,22.710 17.515,22.661 C17.415,22.611 17.245,22.512 17.004,22.362 C16.762,22.213 16.627,22.131 16.599,22.117 C14.652,21.037 12.983,19.801 11.591,18.409 C10.199,17.016 8.962,15.347 7.882,13.401 C7.868,13.372 7.787,13.237 7.637,12.996 C7.488,12.754 7.389,12.584 7.339,12.484 C7.289,12.385 7.229,12.239 7.158,12.047 C7.087,11.855 7.051,11.696 7.051,11.568 C7.051,11.312 7.254,10.985 7.658,10.587 C8.064,10.190 8.505,9.813 8.980,9.458 C9.456,9.103 9.896,8.712 10.302,8.286 C10.706,7.860 10.909,7.505 10.909,7.221 C10.909,7.022 10.859,6.819 10.759,6.613 C10.660,6.407 10.508,6.155 10.302,5.857 C10.095,5.558 9.971,5.381 9.928,5.324 C9.715,4.969 9.495,4.589 9.268,4.184 C9.040,3.779 8.791,3.328 8.521,2.830 C8.252,2.333 8.039,1.950 7.882,1.680 C7.385,0.685 7.009,0.145 6.753,0.060 C6.653,0.018 6.504,-0.004 6.305,-0.004 C5.922,-0.004 5.421,0.067 4.802,0.210 C4.185,0.351 3.698,0.500 3.343,0.657 C2.633,0.955 1.880,1.822 1.084,3.256 C0.359,4.592 -0.003,5.913 -0.003,7.220 C-0.003,7.604 0.022,7.977 0.071,8.339 C0.121,8.702 0.211,9.110 0.338,9.565 C0.466,10.019 0.569,10.357 0.647,10.577 C0.725,10.797 0.871,11.191 1.084,11.760 C1.297,12.328 1.425,12.676 1.467,12.804 C1.965,14.196 2.554,15.440 3.236,16.534 C4.358,18.352 5.889,20.231 7.829,22.171 C9.768,24.110 11.647,25.641 13.466,26.764 C14.559,27.445 15.803,28.035 17.195,28.532 C17.323,28.575 17.672,28.703 18.239,28.916 C18.808,29.129 19.202,29.275 19.422,29.353 C19.642,29.431 19.980,29.534 20.434,29.662 C20.890,29.790 21.298,29.879 21.660,29.929 C22.023,29.978 22.395,30.004 22.779,30.004 C24.086,30.004 25.407,29.641 26.743,28.917 C28.177,28.121 29.044,27.368 29.342,26.657 C29.499,26.303 29.648,25.816 29.790,25.198 C29.932,24.580 30.003,24.079 30.003,23.696 C30.003,23.496 29.982,23.347 29.939,23.246 Z"/>
</svg>