<svg 
 xmlns="http://www.w3.org/2000/svg"
 xmlns:xlink="http://www.w3.org/1999/xlink"
 width="23px" height="30px">
<path fill-rule="evenodd"  fill="rgb(241, 164, 56)"
 d="M17.017,23.138 L20.751,23.138 L16.712,27.406 L16.712,23.439 C16.712,23.273 16.849,23.138 17.017,23.138 ZM15.229,30.000 L0.742,30.000 C0.332,30.000 -0.000,29.671 -0.000,29.265 L-0.000,0.735 C-0.000,0.329 0.332,0.000 0.742,0.000 L22.258,0.000 C22.668,0.000 23.000,0.329 23.000,0.735 L23.000,21.668 L17.017,21.668 C16.030,21.668 15.229,22.462 15.229,23.439 L15.229,30.000 L15.229,30.000 ZM3.526,4.265 C3.526,4.671 3.858,5.000 4.268,5.000 L17.249,5.000 C17.658,5.000 17.990,4.671 17.990,4.265 C17.990,3.859 17.658,3.529 17.249,3.529 L4.268,3.529 C3.858,3.529 3.526,3.859 3.526,4.265 ZM3.526,8.750 C3.526,9.156 3.858,9.485 4.268,9.485 L17.249,9.485 C17.658,9.485 17.990,9.156 17.990,8.750 C17.990,8.344 17.658,8.015 17.249,8.015 L4.268,8.015 C3.858,8.015 3.526,8.344 3.526,8.750 ZM3.526,13.235 C3.526,13.641 3.858,13.970 4.268,13.970 L14.935,13.970 C15.345,13.970 15.677,13.641 15.677,13.235 C15.677,12.829 15.345,12.500 14.935,12.500 L4.268,12.500 C3.858,12.500 3.526,12.829 3.526,13.235 ZM4.268,18.456 L19.047,18.456 C19.457,18.456 19.789,18.127 19.789,17.720 C19.789,17.315 19.457,16.985 19.047,16.985 L4.268,16.985 C3.858,16.985 3.526,17.315 3.526,17.720 C3.526,18.127 3.858,18.456 4.268,18.456 Z"/>
</svg>