<svg 
 xmlns="http://www.w3.org/2000/svg"
 xmlns:xlink="http://www.w3.org/1999/xlink"
 width="32px" height="32px">
<path fill-rule="evenodd"  fill="rgb(243, 176, 7)"
 d="M31.995,8.281 C31.995,8.564 31.880,8.820 31.694,9.006 C31.508,9.191 31.252,9.306 30.969,9.307 C30.402,9.307 29.944,8.848 29.945,8.282 L29.948,3.509 L17.190,16.264 C16.790,16.665 16.140,16.665 15.740,16.265 C15.340,15.865 15.340,15.216 15.741,14.816 L28.499,2.060 L23.724,2.064 C23.158,2.064 22.699,1.606 22.700,1.039 C22.700,0.473 23.160,0.014 23.726,0.014 L30.975,0.008 C31.541,0.008 32.000,0.467 32.000,1.033 L31.995,8.281 ZM21.825,23.201 C23.901,21.126 25.180,19.319 29.754,22.995 C34.329,26.674 30.816,29.124 28.805,31.135 C26.485,33.455 17.838,31.257 9.290,22.710 C0.743,14.162 -1.455,5.514 0.866,3.194 C2.876,1.183 5.327,-2.330 9.003,2.245 C12.681,6.819 10.874,8.099 8.799,10.174 C7.349,11.624 10.376,15.290 13.542,18.457 C16.708,21.624 20.375,24.651 21.825,23.201 Z"/>
</svg>