<svg 
 xmlns="http://www.w3.org/2000/svg"
 xmlns:xlink="http://www.w3.org/1999/xlink"
 width="41px" height="41px">
<path fill-rule="evenodd"  fill="rgb(118, 157, 91)"
 d="M37.868,40.747 L3.134,40.747 L0.239,40.747 L0.239,5.040 L6.031,5.112 L6.031,6.539 C6.031,8.898 7.976,10.817 10.373,10.817 C12.768,10.817 14.715,8.896 14.715,6.539 L14.715,5.112 L26.298,5.112 L26.298,6.539 C26.298,8.896 28.238,10.817 30.638,10.817 C33.034,10.817 34.978,8.896 34.978,6.539 L34.978,5.112 L40.719,5.112 L40.761,40.739 L37.868,40.747 ZM37.868,15.093 L3.134,15.093 L3.134,37.904 L37.868,37.904 L37.868,15.093 ZM12.036,28.702 L7.478,28.702 L7.478,24.740 L12.036,24.740 L12.036,28.702 ZM12.036,35.419 L7.478,35.419 L7.478,31.456 L12.036,31.456 L12.036,35.419 ZM19.285,22.119 L14.722,22.119 L14.722,18.153 L19.285,18.153 L19.285,22.119 ZM19.285,28.702 L14.722,28.702 L14.722,24.740 L19.285,24.740 L19.285,28.702 ZM19.285,35.419 L14.722,35.419 L14.722,31.456 L19.285,31.456 L19.285,35.419 ZM26.662,22.119 L22.096,22.119 L22.096,18.153 L26.662,18.153 L26.662,22.119 ZM26.662,28.702 L22.096,28.702 L22.096,24.740 L26.662,24.740 L26.662,28.702 ZM26.662,35.419 L22.096,35.419 L22.096,31.456 L26.662,31.456 L26.662,35.419 ZM33.500,22.119 L28.938,22.119 L28.938,18.153 L33.500,18.153 L33.500,22.119 ZM33.500,28.702 L28.938,28.702 L28.938,24.740 L33.500,24.740 L33.500,28.702 ZM33.500,35.419 L28.938,35.419 L28.938,31.456 L33.500,31.456 L33.500,35.419 ZM30.589,8.799 C29.012,8.799 27.738,7.551 27.738,5.997 L27.738,3.062 C27.738,1.504 29.012,0.253 30.589,0.253 C32.166,0.253 33.440,1.505 33.440,3.062 L33.440,5.995 C33.440,7.551 32.163,8.799 30.589,8.799 ZM10.327,8.799 C8.749,8.799 7.478,7.551 7.478,5.997 L7.478,3.062 C7.478,1.504 8.751,0.253 10.327,0.253 C11.902,0.253 13.179,1.504 13.180,3.062 L13.180,5.995 C13.180,7.551 11.902,8.799 10.327,8.799 Z"/>
</svg>