<svg 
 xmlns="http://www.w3.org/2000/svg"
 xmlns:xlink="http://www.w3.org/1999/xlink"
 width="42px" height="42px">
<path fill-rule="evenodd"  fill="rgb(160, 136, 107)"
 d="M21.000,41.460 C9.719,41.460 0.540,32.281 0.540,21.000 C0.540,9.719 9.719,0.541 21.000,0.541 C32.282,0.541 41.459,9.719 41.459,21.000 C41.459,32.281 32.282,41.460 21.000,41.460 ZM20.318,35.921 C20.318,36.298 20.624,36.603 21.000,36.603 C21.376,36.603 21.682,36.298 21.682,35.921 L21.682,35.239 C21.682,34.862 21.376,34.557 21.000,34.557 C20.624,34.557 20.318,34.862 20.318,35.239 L20.318,35.921 ZM6.678,20.235 L5.996,20.235 C5.620,20.235 5.314,20.541 5.314,20.917 C5.314,21.294 5.620,21.600 5.996,21.600 L6.678,21.600 C7.055,21.600 7.360,21.294 7.360,20.917 C7.360,20.541 7.055,20.235 6.678,20.235 ZM11.355,10.308 L10.874,9.826 C10.606,9.559 10.176,9.559 9.909,9.826 C9.643,10.092 9.643,10.523 9.909,10.790 L10.391,11.272 C10.524,11.405 10.698,11.472 10.874,11.472 C11.048,11.472 11.222,11.405 11.355,11.272 C11.622,11.006 11.622,10.575 11.355,10.308 ZM11.355,30.563 C11.089,30.296 10.658,30.296 10.391,30.563 L9.909,31.045 C9.643,31.312 9.643,31.743 9.909,32.009 C10.042,32.142 10.217,32.209 10.391,32.209 C10.565,32.209 10.740,32.142 10.874,32.009 L11.355,31.527 C11.622,31.260 11.622,30.829 11.355,30.563 ZM21.682,5.914 C21.682,5.537 21.376,5.232 21.000,5.232 C20.624,5.232 20.318,5.537 20.318,5.914 L20.318,6.596 C20.318,6.973 20.624,7.278 21.000,7.278 C21.376,7.278 21.682,6.973 21.682,6.596 L21.682,5.914 ZM21.682,18.286 L21.682,11.370 C21.682,10.993 21.376,10.688 21.000,10.688 C20.624,10.688 20.318,10.993 20.318,11.370 L20.318,18.286 C19.364,18.535 18.617,19.281 18.369,20.235 L13.498,20.235 C13.122,20.235 12.816,20.541 12.816,20.917 C12.816,21.294 13.122,21.600 13.498,21.600 L18.369,21.600 C18.674,22.772 19.733,23.646 21.000,23.646 C22.504,23.646 23.728,22.422 23.728,20.917 C23.728,19.650 22.855,18.591 21.682,18.286 ZM32.091,9.826 C31.825,9.559 31.394,9.559 31.127,9.826 L30.645,10.308 C30.378,10.575 30.378,11.005 30.645,11.272 C30.778,11.405 30.952,11.472 31.127,11.472 C31.301,11.472 31.476,11.405 31.609,11.272 L32.091,10.790 C32.358,10.524 32.358,10.092 32.091,9.826 ZM32.091,31.045 L31.609,30.563 C31.342,30.296 30.911,30.296 30.645,30.563 C30.378,30.829 30.378,31.260 30.645,31.527 L31.127,32.009 C31.260,32.142 31.434,32.209 31.609,32.209 C31.783,32.209 31.958,32.142 32.091,32.009 C32.358,31.743 32.358,31.311 32.091,31.045 ZM36.004,20.235 L35.322,20.235 C34.945,20.235 34.639,20.541 34.639,20.917 C34.639,21.294 34.945,21.600 35.322,21.600 L36.004,21.600 C36.380,21.600 36.686,21.294 36.686,20.917 C36.686,20.541 36.380,20.235 36.004,20.235 ZM21.000,22.282 C20.246,22.282 19.636,21.671 19.636,20.917 C19.636,20.164 20.246,19.554 21.000,19.554 C21.754,19.554 22.364,20.164 22.364,20.917 C22.364,21.671 21.754,22.282 21.000,22.282 Z"/>
</svg>