<svg 
 xmlns="http://www.w3.org/2000/svg"
 xmlns:xlink="http://www.w3.org/1999/xlink"
 width="41px" height="42px">
<path fill-rule="evenodd"  fill="rgb(103, 133, 131)"
 d="M25.313,36.702 L25.313,37.930 C25.313,38.906 24.592,39.719 23.654,39.857 L23.350,40.972 C23.185,41.577 22.638,42.000 22.004,42.000 L18.991,42.000 C18.357,42.000 17.810,41.577 17.645,40.972 L17.350,39.857 C16.403,39.710 15.683,38.906 15.683,37.921 L15.683,36.694 C15.683,36.037 16.212,35.510 16.872,35.510 L24.123,35.510 C24.783,35.518 25.313,36.046 25.313,36.702 ZM30.896,20.162 C30.896,22.953 29.785,25.485 27.979,27.343 C26.607,28.761 25.721,30.567 25.426,32.494 C25.295,33.323 24.575,33.937 23.724,33.937 L17.272,33.937 C16.430,33.937 15.700,33.332 15.579,32.502 C15.275,30.575 14.380,28.743 13.008,27.335 C11.237,25.502 10.134,23.014 10.108,20.274 C10.047,14.519 14.649,9.860 20.433,9.817 C26.207,9.774 30.896,14.423 30.896,20.162 ZM21.674,13.896 C21.674,13.257 21.153,12.730 20.502,12.730 C16.369,12.730 13.000,16.074 13.000,20.196 C13.000,20.836 13.521,21.363 14.172,21.363 C14.814,21.363 15.344,20.844 15.344,20.196 C15.344,17.362 17.663,15.063 20.502,15.063 C21.153,15.063 21.674,14.544 21.674,13.896 ZM20.502,6.421 C21.145,6.421 21.674,5.902 21.674,5.254 L21.674,1.167 C21.674,0.527 21.153,-0.000 20.502,-0.000 C19.851,-0.000 19.330,0.519 19.330,1.167 L19.330,5.254 C19.330,5.902 19.860,6.421 20.502,6.421 ZM6.704,20.153 C6.704,19.514 6.183,18.986 5.532,18.986 L1.424,18.986 C0.782,18.986 0.252,19.505 0.252,20.153 C0.252,20.793 0.773,21.320 1.424,21.320 L5.532,21.320 C6.183,21.320 6.704,20.801 6.704,20.153 ZM39.580,18.986 L35.473,18.986 C34.830,18.986 34.300,19.505 34.300,20.153 C34.300,20.793 34.821,21.320 35.473,21.320 L39.580,21.320 C40.222,21.320 40.752,20.801 40.752,20.153 C40.752,19.514 40.231,18.986 39.580,18.986 ZM9.092,29.867 L6.183,32.762 C5.723,33.220 5.723,33.954 6.183,34.412 C6.409,34.637 6.713,34.749 7.008,34.749 C7.303,34.749 7.607,34.637 7.833,34.412 L10.742,31.517 C11.202,31.059 11.202,30.325 10.742,29.867 C10.290,29.409 9.543,29.409 9.092,29.867 ZM31.087,10.785 C31.383,10.785 31.686,10.673 31.912,10.448 L34.821,7.553 C35.281,7.095 35.281,6.361 34.821,5.902 C34.361,5.444 33.623,5.444 33.163,5.902 L30.254,8.798 C29.793,9.256 29.793,9.990 30.254,10.448 C30.488,10.673 30.783,10.785 31.087,10.785 ZM9.092,10.439 C9.318,10.664 9.622,10.777 9.917,10.777 C10.212,10.777 10.516,10.664 10.742,10.439 C11.202,9.981 11.202,9.247 10.742,8.789 L7.833,5.894 C7.373,5.436 6.635,5.436 6.174,5.894 C5.714,6.352 5.714,7.086 6.174,7.544 L9.092,10.439 ZM31.912,29.867 C31.452,29.409 30.714,29.409 30.254,29.867 C29.793,30.325 29.793,31.059 30.254,31.517 L33.163,34.412 C33.388,34.637 33.692,34.749 33.988,34.749 C34.283,34.749 34.587,34.637 34.813,34.412 C35.273,33.954 35.273,33.220 34.813,32.762 L31.912,29.867 Z"/>
</svg>