<?xml version="1.0" encoding="iso-8859-1"?>
<!-- Generator: Adobe Illustrator 19.0.0, SVG Export Plug-In . SVG Version: 6.00 Build 0)  -->
<svg version="1.1" id="Capa_1" xmlns="http://www.w3.org/2000/svg" xmlns:xlink="http://www.w3.org/1999/xlink" x="0px" y="0px"
	 viewBox="0 0 470.613 470.613" style="enable-background:new 0 0 470.613 470.613;" xml:space="preserve">
<circle style="fill:#FFC107;" cx="351.893" cy="117.333" r="117.333"/>
<g>
	<path style="fill:#455A64;" d="M394.56,128h-85.333c-5.891,0-10.667-4.776-10.667-10.667s4.776-10.667,10.667-10.667h85.333
		c5.891,0,10.667,4.776,10.667,10.667S400.451,128,394.56,128z"/>
	<path style="fill:#455A64;" d="M351.893,170.667c-5.891,0-10.667-4.776-10.667-10.667V74.667c0-5.891,4.776-10.667,10.667-10.667
		c5.891,0,10.667,4.776,10.667,10.667V160C362.56,165.891,357.784,170.667,351.893,170.667z"/>
</g>
<path style="fill:#009688;" d="M374.72,332.16c-24.694,0.058-49.238-3.831-72.704-11.52c-10.972-3.86-23.18-1.285-31.659,6.677
	l-46.016,34.773c-49.444-24.819-89.561-64.929-114.389-114.368l33.813-44.907c8.568-8.569,11.624-21.21,7.915-32.747
	c-7.74-23.486-11.666-48.061-11.627-72.789c0-17.673-14.327-32-32-32H33.387c-17.673,0-32,14.327-32,32
	C1.622,303.369,168.631,470.378,374.72,470.613c17.673,0,32-14.327,32-32V364.16C406.72,346.487,392.393,332.16,374.72,332.16z"/>
<g>
</g>
<g>
</g>
<g>
</g>
<g>
</g>
<g>
</g>
<g>
</g>
<g>
</g>
<g>
</g>
<g>
</g>
<g>
</g>
<g>
</g>
<g>
</g>
<g>
</g>
<g>
</g>
<g>
</g>
</svg>
