<svg xmlns="http://www.w3.org/2000/svg" xmlns:xlink="http://www.w3.org/1999/xlink" width="28px" height="28px">
        <path fill-rule="evenodd" fill="rgb(4, 53, 127)" d="M27.911,23.141 C27.874,23.218 27.761,23.256 27.648,23.256 L18.306,23.256 L18.758,27.120 C18.758,27.158 18.758,27.197 18.758,27.235 L24.032,27.235 C24.258,27.235 24.408,27.388 24.408,27.617 C24.408,27.847 24.258,28.000 24.032,28.000 L3.955,28.000 C3.729,28.000 3.578,27.847 3.578,27.617 C3.578,27.388 3.729,27.235 3.955,27.235 L9.191,27.235 C9.191,27.197 9.191,27.158 9.191,27.120 L9.681,23.256 L0.339,23.256 C0.264,23.256 0.151,23.218 0.075,23.141 C0.038,23.065 -0.000,22.950 -0.000,22.835 L1.620,8.182 C1.658,7.991 1.808,7.838 1.996,7.838 L9.040,7.838 C9.191,5.657 10.773,3.820 12.882,3.438 C15.443,2.940 17.892,4.662 18.381,7.264 C18.419,7.455 18.457,7.646 18.457,7.838 L26.028,7.838 C26.216,7.838 26.405,7.991 26.367,8.182 L27.987,22.835 C28.024,22.950 27.987,23.065 27.911,23.141 ZM22.186,22.491 L21.885,19.392 L17.403,19.392 L17.553,22.491 L22.186,22.491 ZM9.982,27.311 L18.005,27.311 C18.005,27.273 18.005,27.273 18.005,27.273 L17.515,23.332 L10.472,23.332 L9.983,27.260 C9.990,27.235 10.015,27.239 9.982,27.273 L9.982,27.311 ZM11.978,12.046 L11.827,14.954 L16.461,14.954 L16.310,12.046 L11.978,12.046 ZM16.234,11.281 L16.121,8.603 L12.167,8.603 L12.016,11.281 L16.234,11.281 ZM11.752,15.719 L11.602,18.627 L16.611,18.627 L16.461,15.719 L11.752,15.719 ZM11.564,19.392 L11.413,22.491 L16.800,22.491 L16.649,19.392 L11.564,19.392 ZM10.660,22.491 L10.810,19.392 L6.441,19.392 L6.140,22.491 L10.660,22.491 ZM0.791,22.491 L5.386,22.491 L5.688,19.392 L1.130,19.392 L0.791,22.491 ZM1.544,15.719 L1.243,18.627 L5.763,18.627 L6.027,15.719 L1.544,15.719 ZM1.921,12.046 L1.620,14.954 L6.102,14.954 L6.328,12.046 L1.921,12.046 ZM2.336,8.603 L2.034,11.281 L6.441,11.281 L6.705,8.603 L2.336,8.603 ZM6.516,18.627 L10.848,18.627 L10.999,15.719 L6.780,15.719 L6.516,18.627 ZM6.855,14.954 L11.074,14.954 L11.225,12.046 L7.119,12.046 L6.855,14.954 ZM7.458,8.603 L7.194,11.281 L11.263,11.281 L11.413,8.603 L7.458,8.603 ZM17.666,7.417 C17.477,6.384 16.875,5.465 16.008,4.853 C15.142,4.241 14.087,4.012 13.033,4.203 C11.300,4.547 9.982,6.039 9.831,7.838 L17.703,7.838 C17.703,7.684 17.703,7.570 17.666,7.417 ZM20.830,8.603 L16.875,8.603 L16.988,11.281 L21.094,11.281 L20.830,8.603 ZM21.131,12.046 L17.025,12.046 L17.176,14.954 L21.395,14.954 L21.131,12.046 ZM17.214,15.719 L17.365,18.627 L21.772,18.627 L21.508,15.719 L17.214,15.719 ZM25.689,8.603 L21.583,8.603 L21.847,11.281 L25.990,11.281 L25.689,8.603 ZM26.066,12.046 L21.922,12.046 L22.186,14.954 L26.367,14.954 L26.066,12.046 ZM26.480,15.719 L22.261,15.719 L22.563,18.627 L26.781,18.627 L26.480,15.719 ZM26.894,19.392 L22.638,19.392 L22.939,22.491 L27.234,22.491 L26.894,19.392 ZM21.357,6.537 L19.399,7.034 C19.399,7.034 19.361,7.034 19.323,7.034 C19.172,7.034 19.022,6.919 18.947,6.766 C18.872,6.575 19.022,6.345 19.210,6.307 L21.169,5.810 C21.357,5.733 21.583,5.886 21.621,6.078 C21.696,6.269 21.546,6.498 21.357,6.537 ZM18.156,4.280 C18.080,4.356 17.967,4.394 17.892,4.394 C17.817,4.394 17.703,4.356 17.628,4.280 C17.477,4.127 17.477,3.897 17.628,3.744 L19.097,2.367 C19.248,2.214 19.474,2.214 19.625,2.367 C19.775,2.519 19.775,2.749 19.587,2.864 L18.156,4.280 ZM15.406,2.826 C15.368,2.826 15.331,2.826 15.293,2.826 C15.067,2.787 14.954,2.558 15.029,2.367 L15.594,0.415 C15.670,0.186 15.858,0.071 16.084,0.147 C16.310,0.186 16.423,0.415 16.348,0.607 L15.782,2.558 C15.707,2.711 15.556,2.826 15.406,2.826 ZM12.543,2.749 C12.543,2.749 12.505,2.749 12.468,2.749 C12.279,2.749 12.129,2.634 12.091,2.443 L11.639,0.454 C11.564,0.262 11.714,0.033 11.903,-0.005 C12.129,-0.044 12.317,0.071 12.355,0.301 L12.807,2.290 C12.882,2.481 12.732,2.711 12.543,2.749 ZM9.530,4.432 C9.454,4.432 9.379,4.394 9.266,4.318 L7.797,2.902 C7.646,2.749 7.646,2.519 7.797,2.367 C7.948,2.214 8.174,2.214 8.325,2.367 L9.794,3.782 C9.944,3.935 9.944,4.165 9.794,4.318 C9.718,4.394 9.643,4.432 9.530,4.432 ZM8.513,6.728 C8.475,6.919 8.287,7.034 8.136,7.034 C8.136,7.034 8.098,7.034 8.061,7.034 L6.102,6.537 C5.914,6.498 5.801,6.269 5.838,6.078 C5.876,5.886 6.102,5.772 6.290,5.810 L8.249,6.269 C8.438,6.307 8.550,6.537 8.513,6.728 Z"
        />
    </svg>