<svg 
 xmlns="http://www.w3.org/2000/svg"
 xmlns:xlink="http://www.w3.org/1999/xlink"
 width="45px" height="42px">
<path fill-rule="evenodd"  fill="rgb(75, 151, 224)"
 d="M33.473,26.506 L43.963,16.143 L45.000,17.167 L34.164,27.871 C34.198,28.050 34.218,28.232 34.218,28.417 C34.218,29.191 33.913,29.918 33.359,30.465 L25.473,38.255 C24.920,38.802 24.184,39.104 23.400,39.104 C22.616,39.104 21.879,38.802 21.326,38.255 L21.270,38.200 C20.992,38.316 20.690,38.379 20.378,38.379 C19.144,38.379 18.141,37.407 18.098,36.199 C16.902,36.157 15.941,35.208 15.899,34.026 C14.702,33.984 13.742,33.036 13.699,31.854 C12.476,31.811 11.492,30.821 11.492,29.602 C11.492,29.113 11.656,28.651 11.945,28.265 L8.775,25.133 C8.637,24.997 8.560,24.813 8.560,24.621 L8.560,22.767 L-0.000,15.017 L0.991,13.949 L6.211,18.676 L15.587,9.414 L8.775,2.684 L9.811,1.661 L20.075,11.799 L21.326,13.035 L23.955,13.035 C24.149,13.035 24.336,13.111 24.473,13.247 L25.421,14.183 L38.831,0.937 L39.868,1.961 L25.939,15.720 C25.938,15.720 25.938,15.721 25.937,15.722 L20.610,20.943 C21.953,21.776 23.759,21.617 24.926,20.466 L27.102,18.316 L28.139,19.340 L27.191,20.276 L33.359,26.369 C33.402,26.412 33.433,26.461 33.473,26.506 ZM20.378,36.931 C20.598,36.931 20.804,36.846 20.959,36.694 L24.447,33.248 C24.602,33.094 24.688,32.891 24.688,32.674 C24.688,32.226 24.319,31.862 23.866,31.862 C23.646,31.862 23.440,31.947 23.285,32.100 L19.797,35.545 C19.642,35.699 19.556,35.902 19.556,36.119 C19.556,36.567 19.925,36.931 20.378,36.931 ZM18.179,34.759 C18.399,34.759 18.605,34.674 18.760,34.521 L22.248,31.076 C22.403,30.922 22.489,30.719 22.489,30.501 C22.489,30.054 22.120,29.690 21.667,29.690 C21.447,29.690 21.241,29.774 21.086,29.927 L17.597,33.373 C17.443,33.526 17.357,33.730 17.357,33.947 C17.357,34.394 17.726,34.759 18.179,34.759 ZM15.979,32.586 C16.199,32.586 16.405,32.501 16.561,32.349 L20.049,28.903 C20.204,28.750 20.289,28.546 20.289,28.329 C20.289,27.881 19.921,27.517 19.468,27.517 C19.248,27.517 19.042,27.602 18.886,27.755 L15.398,31.200 C15.243,31.354 15.158,31.557 15.158,31.774 C15.158,32.222 15.526,32.586 15.979,32.586 ZM13.780,30.414 C14.000,30.414 14.206,30.329 14.361,30.176 L17.850,26.731 C18.004,26.577 18.090,26.374 18.090,26.157 C18.090,25.709 17.721,25.345 17.268,25.345 C17.048,25.345 16.842,25.430 16.687,25.582 L13.199,29.028 C13.044,29.181 12.958,29.385 12.958,29.602 C12.958,30.050 13.327,30.414 13.780,30.414 ZM16.624,10.438 L7.293,19.655 L9.271,21.446 L18.520,12.310 L16.624,10.438 ZM32.323,27.393 L26.154,21.300 L25.962,21.489 C24.049,23.380 20.923,23.391 18.996,21.516 C18.857,21.380 18.778,21.195 18.778,21.002 C18.777,20.808 18.855,20.622 18.994,20.486 L24.382,15.205 L23.651,14.483 L21.022,14.483 C20.828,14.483 20.641,14.407 20.504,14.271 L19.556,13.334 L10.026,22.748 L10.026,24.321 L12.958,27.217 L15.650,24.559 C16.082,24.132 16.657,23.897 17.268,23.897 C18.502,23.897 19.505,24.868 19.548,26.077 C20.745,26.119 21.705,27.068 21.748,28.249 C22.944,28.291 23.904,29.240 23.947,30.422 C25.170,30.465 26.154,31.455 26.154,32.674 C26.154,33.278 25.916,33.846 25.485,34.272 L22.433,37.287 C22.994,37.772 23.904,37.757 24.436,37.231 L32.323,29.441 C32.600,29.168 32.752,28.805 32.752,28.417 C32.752,28.030 32.600,27.667 32.323,27.393 ZM30.394,3.137 L31.040,1.836 C31.478,2.049 31.928,2.288 32.377,2.546 L31.639,3.797 C31.220,3.556 30.801,3.334 30.394,3.137 ZM27.784,2.131 L28.195,0.741 C28.680,0.881 29.167,1.045 29.643,1.229 L29.109,2.577 C28.673,2.409 28.227,2.259 27.784,2.131 ZM25.033,1.587 L25.203,0.148 C25.716,0.208 26.223,0.286 26.709,0.382 L26.423,1.802 C25.975,1.714 25.507,1.642 25.033,1.587 ZM22.489,1.448 L22.203,1.450 L22.182,0.002 L22.489,0.000 C22.900,0.000 23.300,0.010 23.692,0.028 L23.623,1.474 C23.254,1.457 22.876,1.448 22.489,1.448 ZM19.160,0.256 C19.656,0.179 20.163,0.119 20.667,0.076 L20.791,1.519 C20.322,1.558 19.849,1.615 19.388,1.687 L19.160,0.256 ZM16.204,0.933 C16.684,0.786 17.177,0.655 17.669,0.542 L18.001,1.953 C17.542,2.058 17.083,2.180 16.637,2.317 L16.204,0.933 ZM13.377,2.021 C13.831,1.808 14.300,1.608 14.770,1.427 L15.303,2.776 C14.866,2.945 14.429,3.131 14.005,3.330 L13.377,2.021 ZM5.627,15.207 C4.415,15.207 3.428,14.232 3.428,13.035 C3.428,11.837 4.415,10.862 5.627,10.862 C6.840,10.862 7.827,11.837 7.827,13.035 C7.827,14.232 6.840,15.207 5.627,15.207 ZM5.627,12.310 C5.223,12.310 4.894,12.636 4.894,13.035 C4.894,13.433 5.223,13.759 5.627,13.759 C6.031,13.759 6.360,13.433 6.360,13.035 C6.360,12.636 6.031,12.310 5.627,12.310 ZM2.745,19.607 C2.712,20.064 2.695,20.534 2.695,21.000 L1.229,21.002 L1.229,21.000 C1.229,20.500 1.246,19.996 1.282,19.504 L2.745,19.607 ZM2.894,23.787 L1.443,23.992 C1.372,23.498 1.317,22.997 1.282,22.501 L2.745,22.398 C2.778,22.860 2.828,23.327 2.894,23.787 ZM3.493,26.513 L2.086,26.920 C1.944,26.443 1.818,25.955 1.711,25.467 L3.144,25.159 C3.244,25.614 3.361,26.069 3.493,26.513 ZM4.479,29.124 L3.145,29.726 C2.935,29.273 2.740,28.808 2.564,28.343 L3.938,27.836 C4.102,28.269 4.284,28.702 4.479,29.124 ZM5.834,31.570 L4.601,32.353 C4.327,31.934 4.066,31.500 3.825,31.065 L5.112,30.370 C5.336,30.775 5.579,31.178 5.834,31.570 ZM7.526,33.801 L6.418,34.750 C6.090,34.376 5.769,33.983 5.466,33.583 L6.639,32.714 C6.923,33.087 7.221,33.452 7.526,33.801 ZM9.524,35.775 L8.563,36.869 C8.183,36.543 7.809,36.199 7.453,35.846 L8.490,34.823 C8.822,35.150 9.170,35.471 9.524,35.775 ZM11.785,37.449 L10.992,38.668 C10.568,38.398 10.148,38.110 9.745,37.811 L10.626,36.652 C11.000,36.930 11.391,37.198 11.785,37.449 ZM14.266,38.791 L13.656,40.107 C13.196,39.899 12.739,39.673 12.298,39.434 L13.002,38.164 C13.413,38.386 13.838,38.597 14.266,38.791 ZM16.912,39.765 L16.500,41.155 C16.013,41.014 15.529,40.855 15.059,40.681 L15.573,39.325 C16.009,39.487 16.460,39.634 16.912,39.765 ZM19.672,40.356 L19.465,41.789 C18.964,41.719 18.462,41.630 17.971,41.525 L18.281,40.110 C18.738,40.207 19.206,40.290 19.672,40.356 ZM22.489,40.552 L22.489,42.000 C21.984,42.000 21.474,41.983 20.974,41.948 L21.077,40.503 C21.543,40.536 22.017,40.552 22.489,40.552 ZM25.516,41.788 C25.016,41.859 24.509,41.912 24.007,41.947 L23.903,40.502 C24.371,40.470 24.844,40.420 25.309,40.355 L25.516,41.788 ZM28.480,41.154 C27.998,41.294 27.503,41.418 27.010,41.524 L26.698,40.109 C27.159,40.010 27.619,39.894 28.068,39.765 L28.480,41.154 ZM31.321,40.107 C30.863,40.314 30.391,40.507 29.921,40.681 L29.408,39.324 C29.846,39.163 30.284,38.983 30.712,38.790 L31.321,40.107 ZM33.981,38.670 C33.558,38.939 33.120,39.196 32.677,39.436 L31.974,38.165 C32.386,37.942 32.795,37.702 33.188,37.452 L33.981,38.670 ZM36.407,36.875 C36.028,37.200 35.630,37.516 35.226,37.815 L34.347,36.657 C34.723,36.377 35.094,36.082 35.447,35.780 L36.407,36.875 ZM38.553,34.755 C38.223,35.131 37.875,35.500 37.518,35.852 L36.482,34.827 C36.814,34.500 37.138,34.156 37.445,33.806 L38.553,34.755 ZM39.142,31.573 L40.375,32.357 C40.101,32.778 39.809,33.192 39.507,33.589 L38.334,32.719 C38.615,32.350 38.887,31.964 39.142,31.573 ZM40.499,29.123 L41.832,29.727 C41.621,30.181 41.392,30.632 41.151,31.068 L39.864,30.373 C40.089,29.966 40.302,29.546 40.499,29.123 ZM41.486,26.509 L42.893,26.916 C42.751,27.395 42.590,27.874 42.414,28.340 L41.040,27.833 C41.204,27.400 41.354,26.955 41.486,26.509 ZM42.084,23.784 L43.535,23.988 C43.463,24.483 43.373,24.979 43.267,25.464 L41.834,25.157 C41.933,24.706 42.017,24.244 42.084,23.784 ZM42.282,21.000 L43.749,21.000 C43.749,21.499 43.731,22.003 43.696,22.497 L42.233,22.396 C42.266,21.936 42.282,21.466 42.282,21.000 Z"/>
</svg>