<svg 
 xmlns="http://www.w3.org/2000/svg"
 xmlns:xlink="http://www.w3.org/1999/xlink"
 width="41px" height="55px">
<path fill-rule="evenodd"  fill="rgb(233, 205, 8)"
 d="M39.469,53.444 C38.527,54.402 37.220,55.000 35.787,55.000 L5.213,55.000 C3.778,55.000 2.473,54.402 1.530,53.444 L1.532,53.442 L1.530,53.441 C0.588,52.479 0.000,51.154 0.000,49.699 L0.000,5.299 C0.000,3.844 0.588,2.519 1.530,1.559 L1.534,1.556 C2.478,0.598 3.781,0.000 5.213,0.000 L35.787,0.000 C37.190,0.000 38.469,0.575 39.410,1.502 L39.469,1.558 C40.412,2.517 41.000,3.842 41.000,5.301 L41.000,49.700 C41.000,51.160 40.412,52.486 39.469,53.444 ZM39.307,5.299 C39.307,4.317 38.909,3.420 38.272,2.773 L38.235,2.730 C37.599,2.107 36.734,1.720 35.787,1.720 L5.213,1.720 C4.248,1.720 3.366,2.123 2.728,2.770 L2.725,2.773 C2.089,3.421 1.692,4.318 1.692,5.299 L1.692,49.699 C1.692,50.682 2.089,51.579 2.726,52.228 L2.728,52.227 C3.366,52.875 4.248,53.280 5.213,53.280 L35.787,53.280 C36.754,53.280 37.634,52.875 38.272,52.227 C38.909,51.579 39.307,50.682 39.307,49.700 L39.307,5.299 ZM35.787,50.560 L22.707,50.560 L22.684,50.560 C22.217,50.560 21.839,50.175 21.839,49.699 L21.839,46.392 L21.839,46.370 C21.839,45.896 22.219,45.509 22.684,45.509 L35.764,45.509 L35.785,45.509 C36.254,45.509 36.632,45.896 36.632,46.370 L36.632,49.677 L36.632,49.699 C36.632,50.173 36.254,50.560 35.787,50.560 ZM34.940,47.230 L23.529,47.230 L23.529,48.839 L34.940,48.839 L34.940,47.230 ZM35.787,42.788 L22.707,42.788 L22.684,42.788 C22.217,42.788 21.839,42.403 21.839,41.929 L21.839,38.622 L21.839,38.600 C21.839,38.126 22.219,37.739 22.684,37.739 L35.764,37.739 L35.785,37.739 C36.254,37.739 36.632,38.126 36.632,38.600 L36.632,41.907 L36.632,41.929 C36.632,42.403 36.254,42.788 35.787,42.788 ZM34.940,39.460 L23.529,39.460 L23.529,41.069 L34.940,41.069 L34.940,39.460 ZM31.439,29.971 L35.785,29.971 C36.252,29.971 36.631,30.357 36.631,30.830 L36.631,30.853 L36.631,34.160 C36.631,34.635 36.252,35.020 35.785,35.020 L35.764,35.020 L31.419,35.020 C30.951,35.020 30.572,34.633 30.572,34.160 L30.572,34.137 L30.572,30.830 C30.572,30.356 30.951,29.971 31.417,29.971 L31.439,29.971 ZM32.265,33.299 L34.940,33.299 L34.940,31.691 L32.265,31.691 L32.265,33.299 ZM30.572,26.368 L30.572,23.060 C30.572,22.585 30.951,22.199 31.417,22.199 L31.439,22.199 L35.785,22.199 C36.252,22.199 36.631,22.585 36.631,23.060 L36.631,23.081 L36.631,26.388 C36.631,26.863 36.252,27.248 35.785,27.248 L35.764,27.248 L31.419,27.248 C30.951,27.249 30.572,26.864 30.572,26.390 L30.572,26.368 ZM32.265,25.531 L34.940,25.531 L34.940,23.921 L32.265,23.921 L32.265,25.531 ZM35.787,17.759 C36.254,17.759 36.632,18.145 36.632,18.618 C36.632,19.092 36.254,19.479 35.787,19.479 L5.236,19.479 L5.213,19.479 C4.746,19.479 4.368,19.092 4.368,18.618 L4.368,5.323 L4.368,5.299 C4.368,4.825 4.748,4.440 5.213,4.440 L35.764,4.440 L35.785,4.440 C36.252,4.440 36.631,4.825 36.631,5.299 L36.631,14.180 L36.632,14.180 C36.632,14.654 36.254,15.039 35.787,15.039 C35.320,15.039 34.942,14.652 34.942,14.180 L34.942,6.159 L6.060,6.159 L6.060,17.759 L35.787,17.759 ZM5.213,22.199 L9.558,22.199 L9.581,22.199 C10.047,22.201 10.426,22.585 10.426,23.060 L10.426,26.367 L10.426,26.388 C10.426,26.863 10.047,27.248 9.581,27.248 L5.236,27.248 L5.213,27.248 C4.746,27.248 4.368,26.861 4.368,26.388 L4.368,23.081 L4.368,23.060 C4.368,22.585 4.748,22.199 5.213,22.199 ZM6.060,25.529 L8.734,25.529 L8.734,23.919 L6.060,23.919 L6.060,25.529 ZM5.213,29.971 L9.558,29.971 L9.581,29.971 C10.047,29.969 10.426,30.356 10.426,30.830 L10.426,34.137 L10.426,34.160 C10.426,34.635 10.047,35.020 9.581,35.020 L5.236,35.020 L5.213,35.020 C4.746,35.020 4.368,34.633 4.368,34.160 L4.368,30.853 L4.368,30.830 C4.368,30.356 4.748,29.971 5.213,29.971 ZM6.060,33.299 L8.734,33.299 L8.734,31.691 L6.060,31.691 L6.060,33.299 ZM5.213,37.739 L9.558,37.739 L9.581,37.739 C10.047,37.739 10.426,38.126 10.426,38.600 L10.426,41.907 L10.426,41.929 C10.426,42.403 10.047,42.788 9.581,42.788 L5.236,42.788 L5.213,42.788 C4.746,42.788 4.368,42.403 4.368,41.929 L4.368,38.622 L4.368,38.600 C4.368,38.126 4.748,37.739 5.213,37.739 ZM6.060,41.069 L8.734,41.069 L8.734,39.460 L6.060,39.460 L6.060,41.069 ZM5.213,45.509 L9.558,45.509 L9.581,45.509 C10.047,45.509 10.426,45.896 10.426,46.370 L10.426,49.677 L10.426,49.699 C10.426,50.173 10.047,50.560 9.581,50.560 L5.236,50.560 L5.213,50.560 C4.746,50.560 4.368,50.175 4.368,49.699 L4.368,46.392 L4.368,46.370 C4.368,45.896 4.748,45.509 5.213,45.509 ZM6.060,48.839 L8.734,48.839 L8.734,47.230 L6.060,47.230 L6.060,48.839 ZM13.950,22.199 L13.971,22.199 L18.316,22.199 C18.783,22.199 19.163,22.585 19.163,23.060 L19.163,23.081 L19.163,26.388 C19.163,26.863 18.783,27.248 18.316,27.248 L18.295,27.248 L13.949,27.248 C13.482,27.249 13.103,26.864 13.103,26.390 L13.103,26.368 L13.103,23.060 C13.103,22.585 13.482,22.199 13.950,22.199 ZM14.795,25.531 L17.471,25.531 L17.471,23.921 L14.795,23.921 L14.795,25.531 ZM13.950,29.971 L13.971,29.971 L18.316,29.971 C18.783,29.971 19.163,30.357 19.163,30.830 L19.163,30.853 L19.163,34.160 C19.163,34.635 18.783,35.020 18.316,35.020 L18.295,35.020 L13.949,35.020 C13.482,35.020 13.103,34.633 13.103,34.160 L13.103,34.137 L13.103,30.830 C13.103,30.356 13.482,29.971 13.950,29.971 ZM14.795,33.299 L17.471,33.299 L17.471,31.691 L14.795,31.691 L14.795,33.299 ZM13.950,37.739 L13.971,37.739 L18.316,37.739 C18.783,37.739 19.163,38.126 19.163,38.600 L19.163,38.624 L19.163,41.930 C19.163,42.405 18.783,42.790 18.316,42.790 L18.295,42.790 L13.949,42.790 C13.482,42.790 13.103,42.405 13.103,41.930 L13.103,41.909 L13.103,38.600 C13.103,38.126 13.482,37.739 13.950,37.739 ZM14.795,41.071 L17.471,41.071 L17.471,39.461 L14.795,39.461 L14.795,41.071 ZM13.950,45.509 L13.971,45.509 L18.316,45.509 C18.783,45.509 19.163,45.894 19.163,46.370 L19.163,46.392 L19.163,49.699 C19.163,50.173 18.783,50.560 18.316,50.560 L18.295,50.560 L13.949,50.560 C13.482,50.560 13.103,50.173 13.103,49.699 L13.103,49.677 L13.103,46.370 C13.103,45.896 13.482,45.509 13.950,45.509 ZM14.795,48.839 L17.471,48.839 L17.471,47.230 L14.795,47.230 L14.795,48.839 ZM22.684,22.199 L27.029,22.199 L27.050,22.199 C27.518,22.201 27.897,22.585 27.897,23.060 L27.897,26.367 L27.897,26.388 C27.897,26.863 27.518,27.248 27.050,27.248 L22.705,27.248 L22.684,27.248 C22.217,27.248 21.839,26.861 21.839,26.388 L21.839,23.081 L21.839,23.060 C21.839,22.585 22.219,22.199 22.684,22.199 ZM23.531,25.529 L26.204,25.529 L26.204,23.919 L23.531,23.919 L23.531,25.529 ZM22.684,29.971 L27.029,29.971 L27.050,29.971 C27.518,29.969 27.897,30.356 27.897,30.830 L27.897,34.137 L27.897,34.160 C27.897,34.635 27.518,35.020 27.050,35.020 L22.705,35.020 L22.684,35.020 C22.217,35.020 21.839,34.633 21.839,34.160 L21.839,30.853 L21.839,30.830 C21.839,30.356 22.219,29.971 22.684,29.971 ZM23.531,33.299 L26.204,33.299 L26.204,31.691 L23.531,31.691 L23.531,33.299 Z"/>
</svg>