<svg 
 xmlns="http://www.w3.org/2000/svg"
 xmlns:xlink="http://www.w3.org/1999/xlink"
 width="24px" height="17px">
<path fill-rule="evenodd"  fill="rgb(46, 69, 105)"
 d="M21.394,16.101 L2.606,16.101 C1.610,16.101 0.799,15.328 0.799,14.378 L0.799,2.622 C0.799,1.672 1.610,0.898 2.606,0.898 L21.394,0.898 C22.390,0.898 23.200,1.672 23.200,2.622 L23.200,14.378 C23.200,15.328 22.390,16.101 21.394,16.101 ZM1.522,14.378 C1.522,14.948 2.008,15.412 2.606,15.412 L21.394,15.412 C21.992,15.412 22.478,14.948 22.478,14.378 L22.478,2.622 C22.478,2.482 22.447,2.349 22.394,2.227 L15.049,8.341 L19.184,12.044 C19.329,12.174 19.336,12.393 19.200,12.532 C19.128,12.604 19.033,12.640 18.936,12.640 C18.847,12.640 18.759,12.609 18.690,12.547 L14.533,8.825 C14.521,8.814 14.524,8.798 14.515,8.786 L13.326,9.775 C12.960,10.080 12.480,10.232 12.000,10.232 C11.520,10.232 11.039,10.080 10.674,9.776 L9.486,8.786 C9.476,8.798 9.479,8.814 9.467,8.825 L5.310,12.547 C5.240,12.609 5.151,12.640 5.063,12.640 C4.967,12.640 4.871,12.604 4.799,12.532 C4.662,12.393 4.670,12.174 4.815,12.044 L8.951,8.341 L1.606,2.225 C1.553,2.347 1.522,2.482 1.522,2.622 L1.522,14.378 ZM2.606,1.588 C2.420,1.588 2.254,1.644 2.102,1.723 L11.148,9.255 C11.610,9.640 12.390,9.640 12.851,9.255 L21.899,1.723 C21.746,1.645 21.580,1.588 21.394,1.588 L2.606,1.588 Z"/>
</svg>