<svg 
 xmlns="http://www.w3.org/2000/svg"
 xmlns:xlink="http://www.w3.org/1999/xlink"
 width="58px" height="41px">
<defs>
<linearGradient id="PSgrad_0" x1="0%" x2="0%" y1="100%" y2="0%">
  <stop offset="0%" stop-color="rgb(99,200,17)" stop-opacity="1" />
  <stop offset="72%" stop-color="rgb(50,148,22)" stop-opacity="1" />
  <stop offset="100%" stop-color="rgb(0,96,27)" stop-opacity="1" />
</linearGradient>

</defs>
<path fill-rule="evenodd"  fill="rgb(0, 0, 0)"
 d="M43.543,41.000 L12.447,41.000 C5.584,41.000 -0.000,35.396 -0.000,28.509 C-0.000,21.621 5.584,16.017 12.447,16.017 C12.578,16.017 12.710,16.019 12.842,16.024 C12.838,15.890 12.837,15.756 12.837,15.622 C12.837,7.008 19.820,0.000 28.404,0.000 C32.199,0.000 35.855,1.386 38.698,3.903 C41.117,6.045 42.804,8.871 43.545,11.983 C51.516,11.984 58.000,18.492 58.000,26.491 C58.000,34.491 51.514,41.000 43.543,41.000 ZM20.145,24.114 C20.279,23.648 20.487,23.230 20.769,22.862 C21.050,22.493 21.405,22.192 21.834,21.959 C22.262,21.725 22.764,21.608 23.339,21.608 C23.608,21.608 23.884,21.636 24.166,21.691 C24.447,21.747 24.722,21.845 24.992,21.986 C25.261,22.127 25.509,22.312 25.735,22.539 C25.962,22.766 26.148,23.052 26.295,23.396 L28.609,21.774 C28.168,20.927 27.498,20.239 26.598,19.711 C25.698,19.183 24.637,18.918 23.413,18.918 C22.385,18.918 21.467,19.109 20.658,19.489 C19.851,19.870 19.165,20.368 18.602,20.982 C18.039,21.596 17.610,22.293 17.317,23.073 C17.023,23.854 16.876,24.636 16.876,25.422 C16.876,26.258 17.032,27.081 17.344,27.892 C17.656,28.702 18.097,29.427 18.666,30.066 C19.236,30.704 19.915,31.217 20.704,31.604 C21.494,31.991 22.360,32.185 23.303,32.185 C23.841,32.185 24.392,32.117 24.955,31.982 C25.518,31.847 26.050,31.650 26.552,31.392 C27.054,31.134 27.498,30.815 27.884,30.434 C28.269,30.054 28.559,29.624 28.756,29.145 L26.296,27.689 C26.161,28.021 25.983,28.300 25.763,28.527 C25.543,28.755 25.301,28.939 25.038,29.080 C24.775,29.222 24.499,29.326 24.211,29.393 C23.924,29.461 23.645,29.495 23.376,29.495 C22.850,29.495 22.375,29.387 21.953,29.172 C21.531,28.958 21.170,28.666 20.870,28.297 C20.570,27.929 20.340,27.505 20.181,27.026 C20.022,26.547 19.943,26.049 19.943,25.533 C19.943,25.054 20.010,24.581 20.145,24.114 ZM41.883,23.138 C41.577,22.339 41.143,21.627 40.580,21.000 C40.017,20.374 39.337,19.870 38.542,19.489 C37.746,19.109 36.865,18.918 35.898,18.918 C34.955,18.918 34.086,19.099 33.290,19.462 C32.495,19.824 31.806,20.309 31.225,20.917 C30.643,21.525 30.190,22.228 29.866,23.027 C29.542,23.826 29.380,24.655 29.380,25.515 C29.380,26.362 29.536,27.185 29.848,27.983 C30.160,28.782 30.597,29.492 31.161,30.112 C31.724,30.732 32.403,31.233 33.199,31.613 C33.994,31.994 34.875,32.185 35.843,32.185 C36.785,32.185 37.654,32.000 38.450,31.632 C39.246,31.263 39.931,30.775 40.506,30.167 C41.082,29.559 41.531,28.856 41.856,28.057 C42.180,27.259 42.342,26.430 42.342,25.570 C42.342,24.747 42.189,23.936 41.883,23.138 ZM46.655,33.223 L44.313,33.223 C44.365,33.166 44.441,33.101 44.541,33.029 C44.642,32.957 44.751,32.885 44.868,32.812 C44.986,32.741 45.105,32.670 45.226,32.601 C45.346,32.532 45.450,32.471 45.536,32.419 C45.662,32.344 45.786,32.262 45.906,32.173 C46.027,32.084 46.136,31.980 46.233,31.862 C46.331,31.744 46.410,31.610 46.470,31.460 C46.531,31.310 46.561,31.140 46.561,30.950 C46.561,30.489 46.396,30.123 46.065,29.852 C45.735,29.581 45.260,29.446 44.640,29.446 C44.387,29.446 44.145,29.469 43.912,29.515 C43.680,29.561 43.466,29.623 43.271,29.701 C43.075,29.779 42.900,29.867 42.745,29.965 C42.590,30.063 42.467,30.163 42.375,30.267 L43.253,31.287 C43.420,31.097 43.592,30.943 43.770,30.825 C43.948,30.706 44.158,30.647 44.399,30.647 C44.611,30.647 44.775,30.696 44.890,30.794 C45.005,30.892 45.062,31.022 45.062,31.183 C45.062,31.264 45.039,31.335 44.993,31.395 C44.947,31.456 44.871,31.523 44.765,31.598 C44.659,31.673 44.515,31.760 44.334,31.858 C44.154,31.956 43.928,32.080 43.658,32.229 C43.406,32.373 43.196,32.520 43.030,32.670 C42.863,32.820 42.731,32.983 42.633,33.158 C42.536,33.334 42.467,33.528 42.427,33.742 C42.386,33.955 42.367,34.197 42.367,34.468 L46.655,34.468 L46.655,33.223 ZM38.432,28.232 C38.150,28.607 37.795,28.911 37.367,29.144 C36.938,29.378 36.436,29.494 35.861,29.494 C35.310,29.494 34.820,29.384 34.392,29.163 C33.963,28.942 33.606,28.647 33.318,28.278 C33.030,27.910 32.813,27.489 32.666,27.016 C32.519,26.544 32.446,26.055 32.446,25.551 C32.446,25.060 32.516,24.578 32.657,24.105 C32.798,23.632 33.012,23.211 33.300,22.843 C33.587,22.474 33.942,22.176 34.364,21.949 C34.787,21.722 35.286,21.608 35.861,21.608 C36.412,21.608 36.898,21.716 37.321,21.931 C37.743,22.146 38.101,22.435 38.395,22.797 C38.689,23.159 38.909,23.577 39.056,24.050 C39.203,24.523 39.276,25.011 39.276,25.515 C39.276,26.006 39.206,26.488 39.065,26.961 C38.924,27.434 38.713,27.858 38.432,28.232 Z"/>
<path fill="url(#PSgrad_0)"
 d="M43.543,41.000 L12.447,41.000 C5.584,41.000 -0.000,35.396 -0.000,28.509 C-0.000,21.621 5.584,16.017 12.447,16.017 C12.578,16.017 12.710,16.019 12.842,16.024 C12.838,15.890 12.837,15.756 12.837,15.622 C12.837,7.008 19.820,0.000 28.404,0.000 C32.199,0.000 35.855,1.386 38.698,3.903 C41.117,6.045 42.804,8.871 43.545,11.983 C51.516,11.984 58.000,18.492 58.000,26.491 C58.000,34.491 51.514,41.000 43.543,41.000 ZM20.145,24.114 C20.279,23.648 20.487,23.230 20.769,22.862 C21.050,22.493 21.405,22.192 21.834,21.959 C22.262,21.725 22.764,21.608 23.339,21.608 C23.608,21.608 23.884,21.636 24.166,21.691 C24.447,21.747 24.722,21.845 24.992,21.986 C25.261,22.127 25.509,22.312 25.735,22.539 C25.962,22.766 26.148,23.052 26.295,23.396 L28.609,21.774 C28.168,20.927 27.498,20.239 26.598,19.711 C25.698,19.183 24.637,18.918 23.413,18.918 C22.385,18.918 21.467,19.109 20.658,19.489 C19.851,19.870 19.165,20.368 18.602,20.982 C18.039,21.596 17.610,22.293 17.317,23.073 C17.023,23.854 16.876,24.636 16.876,25.422 C16.876,26.258 17.032,27.081 17.344,27.892 C17.656,28.702 18.097,29.427 18.666,30.066 C19.236,30.704 19.915,31.217 20.704,31.604 C21.494,31.991 22.360,32.185 23.303,32.185 C23.841,32.185 24.392,32.117 24.955,31.982 C25.518,31.847 26.050,31.650 26.552,31.392 C27.054,31.134 27.498,30.815 27.884,30.434 C28.269,30.054 28.559,29.624 28.756,29.145 L26.296,27.689 C26.161,28.021 25.983,28.300 25.763,28.527 C25.543,28.755 25.301,28.939 25.038,29.080 C24.775,29.222 24.499,29.326 24.211,29.393 C23.924,29.461 23.645,29.495 23.376,29.495 C22.850,29.495 22.375,29.387 21.953,29.172 C21.531,28.958 21.170,28.666 20.870,28.297 C20.570,27.929 20.340,27.505 20.181,27.026 C20.022,26.547 19.943,26.049 19.943,25.533 C19.943,25.054 20.010,24.581 20.145,24.114 ZM41.883,23.138 C41.577,22.339 41.143,21.627 40.580,21.000 C40.017,20.374 39.337,19.870 38.542,19.489 C37.746,19.109 36.865,18.918 35.898,18.918 C34.955,18.918 34.086,19.099 33.290,19.462 C32.495,19.824 31.806,20.309 31.225,20.917 C30.643,21.525 30.190,22.228 29.866,23.027 C29.542,23.826 29.380,24.655 29.380,25.515 C29.380,26.362 29.536,27.185 29.848,27.983 C30.160,28.782 30.597,29.492 31.161,30.112 C31.724,30.732 32.403,31.233 33.199,31.613 C33.994,31.994 34.875,32.185 35.843,32.185 C36.785,32.185 37.654,32.000 38.450,31.632 C39.246,31.263 39.931,30.775 40.506,30.167 C41.082,29.559 41.531,28.856 41.856,28.057 C42.180,27.259 42.342,26.430 42.342,25.570 C42.342,24.747 42.189,23.936 41.883,23.138 ZM46.655,33.223 L44.313,33.223 C44.365,33.166 44.441,33.101 44.541,33.029 C44.642,32.957 44.751,32.885 44.868,32.812 C44.986,32.741 45.105,32.670 45.226,32.601 C45.346,32.532 45.450,32.471 45.536,32.419 C45.662,32.344 45.786,32.262 45.906,32.173 C46.027,32.084 46.136,31.980 46.233,31.862 C46.331,31.744 46.410,31.610 46.470,31.460 C46.531,31.310 46.561,31.140 46.561,30.950 C46.561,30.489 46.396,30.123 46.065,29.852 C45.735,29.581 45.260,29.446 44.640,29.446 C44.387,29.446 44.145,29.469 43.912,29.515 C43.680,29.561 43.466,29.623 43.271,29.701 C43.075,29.779 42.900,29.867 42.745,29.965 C42.590,30.063 42.467,30.163 42.375,30.267 L43.253,31.287 C43.420,31.097 43.592,30.943 43.770,30.825 C43.948,30.706 44.158,30.647 44.399,30.647 C44.611,30.647 44.775,30.696 44.890,30.794 C45.005,30.892 45.062,31.022 45.062,31.183 C45.062,31.264 45.039,31.335 44.993,31.395 C44.947,31.456 44.871,31.523 44.765,31.598 C44.659,31.673 44.515,31.760 44.334,31.858 C44.154,31.956 43.928,32.080 43.658,32.229 C43.406,32.373 43.196,32.520 43.030,32.670 C42.863,32.820 42.731,32.983 42.633,33.158 C42.536,33.334 42.467,33.528 42.427,33.742 C42.386,33.955 42.367,34.197 42.367,34.468 L46.655,34.468 L46.655,33.223 ZM38.432,28.232 C38.150,28.607 37.795,28.911 37.367,29.144 C36.938,29.378 36.436,29.494 35.861,29.494 C35.310,29.494 34.820,29.384 34.392,29.163 C33.963,28.942 33.606,28.647 33.318,28.278 C33.030,27.910 32.813,27.489 32.666,27.016 C32.519,26.544 32.446,26.055 32.446,25.551 C32.446,25.060 32.516,24.578 32.657,24.105 C32.798,23.632 33.012,23.211 33.300,22.843 C33.587,22.474 33.942,22.176 34.364,21.949 C34.787,21.722 35.286,21.608 35.861,21.608 C36.412,21.608 36.898,21.716 37.321,21.931 C37.743,22.146 38.101,22.435 38.395,22.797 C38.689,23.159 38.909,23.577 39.056,24.050 C39.203,24.523 39.276,25.011 39.276,25.515 C39.276,26.006 39.206,26.488 39.065,26.961 C38.924,27.434 38.713,27.858 38.432,28.232 Z"/>
</svg>