<svg 
 xmlns="http://www.w3.org/2000/svg"
 xmlns:xlink="http://www.w3.org/1999/xlink"
 width="22px" height="22px">
<path fill-rule="evenodd"  fill="rgb(122, 132, 151)"
 d="M18.541,22.001 L13.659,22.001 C13.473,22.001 13.321,21.851 13.321,21.667 L13.321,14.877 L8.675,14.877 L8.675,21.667 C8.675,21.851 8.524,22.001 8.337,22.001 L3.454,22.001 C3.267,22.001 3.115,21.851 3.115,21.667 L3.115,10.589 L0.329,10.589 C0.190,10.589 0.066,10.506 0.015,10.379 C-0.036,10.253 -0.004,10.108 0.096,10.014 L10.764,0.079 C10.895,-0.043 11.099,-0.042 11.230,0.079 L21.900,10.014 C22.001,10.108 22.033,10.253 21.982,10.379 C21.931,10.506 21.806,10.589 21.668,10.589 L18.880,10.589 L18.880,21.667 C18.880,21.851 18.728,22.001 18.541,22.001 ZM13.998,21.334 L18.203,21.334 L18.203,10.256 C18.203,10.072 18.355,9.922 18.541,9.922 L20.817,9.922 L10.997,0.780 L1.180,9.922 L3.454,9.922 C3.641,9.922 3.792,10.072 3.792,10.256 L3.792,21.334 L7.999,21.334 L7.999,14.543 C7.999,14.359 8.150,14.210 8.337,14.210 L13.659,14.210 C13.846,14.210 13.998,14.359 13.998,14.543 L13.998,21.334 Z"/>
</svg>