<svg 
 xmlns="http://www.w3.org/2000/svg"
 xmlns:xlink="http://www.w3.org/1999/xlink"
 width="17px" height="23px">
<path fill-rule="evenodd"  fill="rgb(62, 84, 118)"
 d="M8.746,22.188 C8.687,22.261 8.599,22.304 8.508,22.304 C8.416,22.304 8.328,22.261 8.270,22.187 C7.969,21.812 0.907,12.937 0.907,8.654 C0.907,4.266 4.316,0.696 8.508,0.696 C12.699,0.696 16.109,4.266 16.109,8.654 C16.109,12.937 9.047,21.812 8.746,22.188 ZM8.508,1.347 C4.659,1.347 1.528,4.624 1.528,8.654 C1.528,12.279 7.257,19.856 8.508,21.465 C9.757,19.855 15.487,12.278 15.487,8.654 C15.486,4.624 12.355,1.347 8.508,1.347 ZM8.508,12.349 C6.561,12.349 4.977,10.691 4.977,8.653 C4.977,6.615 6.561,4.957 8.508,4.957 C10.455,4.957 12.038,6.615 12.038,8.653 C12.038,10.691 10.454,12.349 8.508,12.349 ZM8.508,5.608 C6.904,5.608 5.599,6.974 5.599,8.654 C5.599,10.333 6.904,11.699 8.508,11.699 C10.111,11.699 11.417,10.333 11.417,8.654 C11.417,6.974 10.111,5.608 8.508,5.608 Z"/>
</svg>