<svg 
 xmlns="http://www.w3.org/2000/svg"
 xmlns:xlink="http://www.w3.org/1999/xlink"
 width="22px" height="29px">
<path fill-rule="evenodd"  fill="rgb(89, 108, 138)"
 d="M21.263,14.307 C21.236,14.431 21.144,14.533 21.020,14.574 L19.923,14.945 L19.893,15.168 C19.885,15.230 19.859,15.289 19.820,15.339 L19.641,15.570 L19.438,16.808 C19.422,16.905 19.366,16.992 19.284,17.048 C19.201,17.105 19.098,17.126 18.999,17.108 L18.686,17.049 L18.502,18.174 C18.479,18.319 18.368,18.436 18.222,18.470 C18.075,18.505 17.922,18.450 17.833,18.332 L17.159,17.436 L16.867,17.450 C16.725,17.457 16.593,17.385 16.524,17.265 C16.454,17.145 16.461,16.998 16.540,16.884 L16.982,16.247 L16.587,16.205 C16.529,16.199 16.473,16.180 16.424,16.149 L15.890,15.808 L15.112,16.123 L15.746,18.388 C15.780,18.510 15.747,18.639 15.658,18.731 C15.570,18.823 15.439,18.864 15.313,18.839 L14.647,18.711 L14.152,19.080 L14.086,19.590 C14.072,19.705 14.001,19.807 13.896,19.863 L12.570,20.572 C12.502,20.731 12.436,20.889 12.367,21.047 C12.306,21.188 12.200,21.277 12.091,21.383 C11.954,21.516 11.821,21.655 11.680,21.783 C11.560,21.891 11.385,21.938 11.236,21.998 L10.796,22.583 C10.735,22.664 10.641,22.717 10.539,22.729 L10.183,22.769 L9.899,22.940 L9.558,23.940 L9.737,24.465 C9.757,24.522 9.761,24.583 9.750,24.642 L9.412,26.491 C9.401,26.553 9.373,26.612 9.331,26.660 L8.691,27.408 L8.436,27.711 L8.272,28.024 C8.230,28.104 8.159,28.166 8.073,28.198 L7.325,28.476 C7.282,28.492 7.237,28.500 7.191,28.500 C7.037,28.500 6.896,28.404 6.842,28.263 L3.788,20.232 C3.764,20.170 3.758,20.103 3.771,20.038 L3.902,19.366 L3.684,18.862 L3.277,19.380 C3.169,19.518 2.976,19.562 2.816,19.485 L1.893,19.043 C1.835,19.015 1.785,18.972 1.749,18.920 L1.180,18.096 C1.118,18.005 1.100,17.892 1.133,17.788 C1.157,17.711 1.207,17.644 1.274,17.597 L0.808,17.375 C0.674,17.311 0.591,17.175 0.600,17.029 C0.608,16.884 0.705,16.757 0.846,16.708 L2.368,16.177 L2.364,15.958 L1.860,14.955 L1.662,14.807 C1.535,14.712 1.484,14.549 1.535,14.402 L1.920,13.305 C1.986,13.117 2.194,13.016 2.387,13.076 L3.085,13.294 L4.463,11.821 L4.466,11.670 C4.467,11.611 4.483,11.552 4.513,11.501 L5.296,10.127 L4.351,9.125 C4.290,9.061 4.255,8.977 4.253,8.889 L4.221,7.646 L3.646,7.155 C3.557,7.079 3.510,6.966 3.521,6.850 C3.531,6.734 3.598,6.631 3.701,6.571 L4.732,5.971 C4.835,5.910 4.963,5.903 5.073,5.950 L6.986,6.766 L8.521,6.687 C8.596,6.683 8.669,6.701 8.733,6.738 L9.452,7.160 C9.618,7.257 9.680,7.460 9.595,7.629 L8.795,9.227 L9.004,9.584 C9.062,9.683 9.069,9.803 9.023,9.907 C8.976,10.012 8.882,10.089 8.769,10.116 L8.682,10.137 L9.287,11.038 L9.655,11.160 C9.840,11.222 9.945,11.412 9.895,11.596 L9.641,12.538 L14.071,14.378 L14.534,13.402 C14.582,13.301 14.676,13.226 14.789,13.201 C14.901,13.175 15.019,13.202 15.108,13.273 L16.220,14.155 L16.786,14.155 L16.817,13.825 C16.828,13.713 16.891,13.613 16.987,13.553 L18.445,12.646 L18.588,12.437 C18.655,12.339 18.767,12.279 18.888,12.276 L20.292,12.240 C20.419,12.237 20.540,12.297 20.611,12.399 L21.336,13.437 C21.392,13.519 21.413,13.620 21.391,13.716 L21.263,14.307 ZM20.108,12.971 L19.101,12.996 L19.022,13.112 C18.993,13.153 18.956,13.189 18.913,13.216 L17.543,14.069 L17.497,14.551 C17.479,14.738 17.318,14.880 17.125,14.880 L16.088,14.880 C16.002,14.880 15.919,14.851 15.852,14.799 L15.010,14.131 L14.597,15.002 C14.512,15.181 14.297,15.261 14.112,15.184 L9.052,13.083 C8.882,13.012 8.791,12.831 8.838,12.657 L9.086,11.737 L8.925,11.684 C8.846,11.658 8.779,11.607 8.734,11.539 L7.769,10.105 C7.703,10.007 7.690,9.883 7.735,9.773 C7.779,9.664 7.875,9.582 7.993,9.554 L8.112,9.526 L8.050,9.420 C7.989,9.316 7.985,9.189 8.038,9.082 L8.775,7.610 L8.446,7.418 L6.937,7.495 C6.879,7.498 6.821,7.488 6.768,7.465 L4.950,6.690 L4.523,6.938 L4.836,7.205 C4.914,7.272 4.961,7.368 4.963,7.469 L4.996,8.735 L6.028,9.828 C6.136,9.944 6.157,10.113 6.079,10.250 L5.210,11.774 L5.206,11.971 C5.205,12.059 5.170,12.143 5.109,12.208 L3.476,13.955 C3.378,14.060 3.225,14.099 3.086,14.056 L2.508,13.876 L2.328,14.389 L2.383,14.430 C2.429,14.464 2.466,14.508 2.492,14.559 L3.071,15.712 C3.095,15.760 3.108,15.812 3.109,15.866 L3.118,16.425 C3.121,16.580 3.022,16.720 2.871,16.772 L1.929,17.101 L2.083,17.175 L2.259,17.259 C2.386,17.319 2.467,17.443 2.468,17.580 C2.470,17.717 2.393,17.843 2.268,17.906 L2.058,18.014 L2.313,18.434 L2.871,18.702 L3.678,17.673 C3.776,17.548 3.946,17.498 4.099,17.551 C4.252,17.604 4.352,17.746 4.347,17.904 L4.329,18.483 L4.634,19.185 C4.663,19.251 4.670,19.324 4.657,19.394 L4.524,20.074 L7.411,27.667 L7.673,27.570 L7.790,27.346 C7.802,27.323 7.817,27.301 7.834,27.281 L8.116,26.945 L8.695,26.269 L8.999,24.605 L8.812,24.055 C8.786,23.981 8.786,23.901 8.812,23.826 L9.233,22.587 C9.261,22.505 9.317,22.436 9.392,22.391 L9.862,22.110 C9.908,22.082 9.960,22.064 10.014,22.058 L10.290,22.026 L10.696,21.488 C10.736,21.434 10.791,21.393 10.853,21.367 L11.195,21.229 L11.686,20.750 L11.931,20.176 C11.964,20.100 12.022,20.037 12.096,19.998 L13.370,19.317 L13.430,18.839 C13.443,18.743 13.495,18.655 13.574,18.596 L14.328,18.034 C14.413,17.971 14.523,17.946 14.628,17.967 L14.868,18.013 L14.306,16.005 C14.256,15.829 14.349,15.644 14.523,15.574 L15.786,15.065 C15.900,15.019 16.030,15.031 16.133,15.096 L16.758,15.493 L17.679,15.592 C17.808,15.606 17.921,15.685 17.976,15.800 C18.031,15.915 18.020,16.050 17.947,16.156 L17.532,16.752 C17.574,16.777 17.612,16.810 17.642,16.850 L17.906,17.200 L18.010,16.565 C18.025,16.468 18.081,16.382 18.164,16.325 C18.247,16.269 18.349,16.247 18.448,16.266 L18.762,16.324 L18.919,15.366 C18.928,15.308 18.952,15.252 18.990,15.205 L19.167,14.977 L19.214,14.628 C19.233,14.492 19.329,14.378 19.462,14.333 L20.577,13.956 L20.629,13.717 L20.108,12.971 ZM14.312,13.079 C14.276,13.122 14.224,13.147 14.169,13.147 C14.115,13.147 14.063,13.122 14.028,13.079 C13.849,12.859 9.647,7.664 9.647,5.156 C9.647,2.587 11.676,0.498 14.169,0.498 C16.663,0.498 18.692,2.587 18.692,5.156 C18.692,7.664 14.491,12.859 14.312,13.079 ZM14.169,0.878 C11.880,0.878 10.017,2.797 10.017,5.156 C10.017,7.278 13.426,11.714 14.169,12.656 C14.913,11.714 18.322,7.278 18.322,5.156 C18.322,2.797 16.459,0.878 14.169,0.878 ZM12.069,5.156 C12.069,3.963 13.011,2.992 14.169,2.992 C15.328,2.992 16.270,3.963 16.270,5.156 C16.270,6.349 15.328,7.320 14.169,7.320 C13.012,7.320 12.069,6.349 12.069,5.156 ZM15.900,5.156 C15.900,4.173 15.124,3.373 14.169,3.373 C13.215,3.373 12.439,4.173 12.439,5.156 C12.439,6.139 13.215,6.939 14.169,6.939 C15.124,6.939 15.900,6.139 15.900,5.156 Z"/>
</svg>