<svg 
 xmlns="http://www.w3.org/2000/svg"
 xmlns:xlink="http://www.w3.org/1999/xlink"
 width="16px" height="21px">
<path fill-rule="evenodd"  fill="rgb(66, 80, 107)"
 d="M12.722,7.167 L15.943,2.010 C16.008,1.907 16.011,1.778 15.952,1.672 C15.893,1.566 15.781,1.500 15.660,1.500 L0.666,1.500 L0.666,0.833 C0.666,0.649 0.517,0.500 0.333,0.500 C0.148,0.500 -0.000,0.649 -0.000,0.833 L-0.000,1.833 L-0.000,11.500 L-0.000,12.500 L-0.000,20.167 C-0.000,20.351 0.148,20.500 0.333,20.500 C0.517,20.500 0.666,20.351 0.666,20.167 L0.666,12.833 L15.660,12.833 C15.781,12.833 15.893,12.768 15.952,12.661 C16.011,12.556 16.008,12.426 15.943,12.323 L12.722,7.167 ZM0.666,12.167 L0.666,11.500 L0.666,2.167 L15.059,2.167 L12.046,6.990 C11.978,7.098 11.978,7.235 12.046,7.344 L15.059,12.167 L0.666,12.167 Z"/>
</svg>