<svg 
 xmlns="http://www.w3.org/2000/svg"
 xmlns:xlink="http://www.w3.org/1999/xlink"
 width="24px" height="23px">
<path fill-rule="evenodd"  fill="rgb(117, 183, 59)"
 d="M23.924,17.275 C23.775,17.032 23.382,16.887 22.791,16.596 C22.200,16.306 19.293,14.898 18.753,14.705 C18.211,14.511 17.816,14.414 17.422,14.995 C17.029,15.578 15.896,16.887 15.551,17.275 C15.205,17.664 14.862,17.712 14.270,17.421 C13.680,17.131 11.775,16.516 9.517,14.535 C7.761,12.994 6.574,11.091 6.229,10.508 C5.885,9.926 6.194,9.612 6.488,9.322 C6.755,9.062 7.080,8.644 7.375,8.304 C7.671,7.964 7.770,7.722 7.966,7.334 C8.164,6.945 8.065,6.607 7.916,6.315 C7.770,6.024 6.586,3.162 6.094,1.998 C5.601,0.834 5.110,1.028 4.765,1.028 C4.420,1.028 4.026,0.980 3.632,0.980 C3.238,0.980 2.597,1.125 2.055,1.707 C1.513,2.289 -0.013,3.696 -0.013,6.557 C-0.013,9.419 2.103,12.183 2.400,12.571 C2.696,12.959 6.488,19.022 12.497,21.351 C18.506,23.678 18.506,22.902 19.590,22.804 C20.673,22.708 23.086,21.398 23.579,20.041 C24.072,18.682 24.072,17.517 23.924,17.275 Z"/>
</svg>