<svg 
 xmlns="http://www.w3.org/2000/svg"
 xmlns:xlink="http://www.w3.org/1999/xlink"
 width="53px" height="53px">
<path fill-rule="evenodd"  fill="rgb(75, 151, 224)"
 d="M52.082,27.418 L44.195,27.418 C43.688,27.418 43.277,27.007 43.277,26.500 C43.277,25.993 43.688,25.582 44.195,25.582 L52.082,25.582 C52.589,25.582 53.000,25.993 53.000,26.500 C53.000,27.007 52.589,27.418 52.082,27.418 ZM39.662,14.637 C39.483,14.816 39.248,14.906 39.013,14.906 C38.778,14.906 38.543,14.816 38.363,14.637 C38.005,14.278 38.005,13.697 38.363,13.338 L43.940,7.762 C44.298,7.403 44.880,7.403 45.239,7.762 C45.597,8.120 45.597,8.702 45.239,9.060 L39.662,14.637 ZM26.500,42.009 C17.948,42.009 10.991,35.052 10.991,26.500 C10.991,17.948 17.948,10.991 26.500,10.991 C35.052,10.991 42.009,17.948 42.009,26.500 C42.009,35.052 35.052,42.009 26.500,42.009 ZM26.500,12.827 C18.961,12.827 12.828,18.961 12.828,26.500 C12.828,34.039 18.961,40.172 26.500,40.172 C34.039,40.172 40.173,34.039 40.173,26.500 C40.173,18.961 34.039,12.827 26.500,12.827 ZM26.500,38.700 C19.773,38.700 14.300,33.227 14.300,26.500 C14.300,19.772 19.773,14.300 26.500,14.300 C33.227,14.300 38.700,19.772 38.700,26.500 C38.700,33.227 33.227,38.700 26.500,38.700 ZM26.500,16.136 C20.785,16.136 16.136,20.785 16.136,26.500 C16.136,32.215 20.785,36.864 26.500,36.864 C32.215,36.864 36.864,32.215 36.864,26.500 C36.864,20.785 32.215,16.136 26.500,16.136 ZM26.500,33.484 C24.863,33.484 23.325,32.847 22.167,31.690 C19.779,29.301 19.779,25.413 22.167,23.025 C22.526,22.666 23.107,22.666 23.466,23.025 C23.825,23.383 23.825,23.964 23.466,24.323 C21.793,25.996 21.793,28.718 23.466,30.391 C24.276,31.201 25.354,31.648 26.500,31.648 C27.646,31.648 28.724,31.201 29.534,30.391 C30.344,29.580 30.791,28.503 30.791,27.357 C30.791,26.211 30.344,25.133 29.534,24.323 C29.175,23.964 29.175,23.383 29.534,23.024 C29.893,22.666 30.474,22.666 30.833,23.024 C31.990,24.182 32.627,25.720 32.627,27.357 C32.627,28.994 31.990,30.532 30.833,31.690 C29.675,32.847 28.137,33.484 26.500,33.484 ZM26.500,27.084 C25.993,27.084 25.582,26.673 25.582,26.166 L25.582,20.534 C25.582,20.027 25.993,19.616 26.500,19.616 C27.007,19.616 27.418,20.027 27.418,20.534 L27.418,26.166 C27.418,26.673 27.007,27.084 26.500,27.084 ZM26.500,9.723 C25.993,9.723 25.582,9.312 25.582,8.805 L25.582,0.918 C25.582,0.411 25.993,-0.000 26.500,-0.000 C27.007,-0.000 27.418,0.411 27.418,0.918 L27.418,8.805 C27.418,9.312 27.007,9.723 26.500,9.723 ZM13.988,14.906 C13.753,14.906 13.518,14.816 13.338,14.637 L7.762,9.060 C7.403,8.702 7.403,8.120 7.762,7.762 C8.120,7.403 8.702,7.403 9.060,7.762 L14.637,13.338 C14.995,13.697 14.995,14.278 14.637,14.637 C14.458,14.816 14.222,14.906 13.988,14.906 ZM9.723,26.500 C9.723,27.007 9.312,27.418 8.805,27.418 L0.918,27.418 C0.411,27.418 -0.000,27.007 -0.000,26.500 C-0.000,25.993 0.411,25.582 0.918,25.582 L8.805,25.582 C9.312,25.582 9.723,25.993 9.723,26.500 ZM13.338,38.363 C13.697,38.005 14.278,38.005 14.637,38.363 C14.995,38.722 14.995,39.303 14.637,39.662 L9.060,45.238 C8.881,45.418 8.646,45.507 8.411,45.507 C8.176,45.507 7.941,45.417 7.762,45.238 C7.403,44.880 7.403,44.298 7.762,43.940 L13.338,38.363 ZM26.500,43.277 C27.007,43.277 27.418,43.688 27.418,44.195 L27.418,52.082 C27.418,52.589 27.007,53.000 26.500,53.000 C25.993,53.000 25.582,52.589 25.582,52.082 L25.582,44.195 C25.582,43.688 25.993,43.277 26.500,43.277 ZM39.662,38.363 L45.239,43.940 C45.597,44.298 45.597,44.880 45.239,45.238 C45.059,45.418 44.824,45.507 44.589,45.507 C44.354,45.507 44.119,45.418 43.940,45.238 L38.363,39.662 C38.005,39.303 38.005,38.722 38.363,38.363 C38.722,38.005 39.303,38.005 39.662,38.363 Z"/>
</svg>