<svg 
 xmlns="http://www.w3.org/2000/svg"
 xmlns:xlink="http://www.w3.org/1999/xlink"
 width="26px" height="25px">
<path fill-rule="evenodd"  fill="rgb(91, 110, 139)"
 d="M25.801,24.900 L0.199,24.900 L4.783,15.393 L7.927,15.393 L6.643,13.562 C4.244,10.404 4.593,5.192 7.399,2.422 C8.914,0.925 10.930,0.100 13.074,0.100 C15.218,0.100 17.234,0.925 18.750,2.422 C21.555,5.192 21.904,10.404 19.495,13.575 L18.220,15.393 L21.217,15.393 L25.801,24.900 ZM18.817,13.091 C21.002,10.213 20.690,5.506 18.158,3.006 C16.800,1.665 14.995,0.926 13.074,0.926 C11.154,0.926 9.349,1.665 7.991,3.006 C5.458,5.506 5.147,10.213 7.322,13.079 L8.946,15.393 L13.074,21.280 L18.817,13.091 ZM17.640,16.220 L13.074,22.733 L8.507,16.220 L5.312,16.220 L1.525,24.073 L24.475,24.073 L20.688,16.220 L17.640,16.220 ZM10.218,7.953 C10.218,6.358 11.533,5.060 13.148,5.060 C14.763,5.060 16.078,6.358 16.078,7.953 C16.078,9.548 14.763,10.846 13.148,10.846 C11.533,10.846 10.218,9.548 10.218,7.953 ZM13.148,10.020 C14.302,10.020 15.241,9.093 15.241,7.953 C15.241,6.814 14.302,5.886 13.148,5.886 C11.994,5.886 11.055,6.814 11.055,7.953 C11.055,9.093 11.994,10.020 13.148,10.020 Z"/>
</svg>