<svg 
 xmlns="http://www.w3.org/2000/svg"
 xmlns:xlink="http://www.w3.org/1999/xlink"
 width="17px" height="26px">
<path fill-rule="evenodd"  fill="rgb(117, 133, 157)"
 d="M14.256,25.417 C12.712,25.793 10.668,26.000 8.500,26.000 C6.332,26.000 4.288,25.793 2.744,25.417 C0.898,24.967 -0.000,24.347 -0.000,23.520 C-0.000,22.873 0.577,22.337 1.716,21.926 C2.625,21.598 3.880,21.346 5.346,21.195 L5.456,22.272 C4.166,22.405 3.053,22.619 2.236,22.892 C1.314,23.200 1.117,23.464 1.083,23.521 C1.151,23.656 1.644,24.059 3.198,24.411 C4.637,24.737 6.520,24.917 8.500,24.917 C10.480,24.917 12.363,24.737 13.802,24.411 C15.356,24.059 15.849,23.656 15.917,23.521 C15.883,23.464 15.687,23.200 14.764,22.892 C13.947,22.620 12.833,22.405 11.544,22.272 L11.654,21.195 C13.120,21.346 14.375,21.599 15.283,21.926 C16.422,22.337 17.000,22.873 17.000,23.520 C17.000,24.347 16.102,24.967 14.256,25.417 ZM9.039,9.734 L9.039,23.520 L7.961,23.520 L7.961,9.734 C5.532,9.464 3.637,7.391 3.637,4.882 C3.637,2.190 5.818,0.000 8.500,0.000 C11.182,0.000 13.363,2.190 13.363,4.882 C13.363,7.391 11.468,9.464 9.039,9.734 ZM8.500,1.083 C6.413,1.083 4.716,2.788 4.716,4.882 C4.716,6.977 6.414,8.681 8.500,8.681 C10.587,8.681 12.284,6.977 12.284,4.882 C12.284,2.788 10.587,1.083 8.500,1.083 Z"/>
</svg>