<svg xmlns="http://www.w3.org/2000/svg" xmlns:xlink="http://www.w3.org/1999/xlink" width="23px" height="29px">
                                    <path fill-rule="evenodd" fill="rgb(34, 59, 97)" d="M19.221,29.000 L3.779,29.000 C1.695,29.000 -0.000,27.258 -0.000,25.118 L-0.000,14.623 C-0.000,12.482 1.695,10.741 3.779,10.741 L18.818,10.741 L18.818,7.787 C18.818,4.085 15.536,1.074 11.500,1.074 C7.465,1.074 4.182,4.085 4.182,7.787 C4.182,8.084 3.948,8.324 3.659,8.324 C3.370,8.324 3.137,8.084 3.137,7.787 C3.137,3.494 6.889,0.000 11.500,0.000 C16.111,0.000 19.863,3.494 19.863,7.787 L19.863,10.801 C21.641,11.116 23.000,12.708 23.000,14.623 L23.000,25.118 C23.000,27.258 21.305,29.000 19.221,29.000 ZM21.954,14.623 C21.954,13.075 20.729,11.815 19.221,11.815 L3.779,11.815 C2.272,11.815 1.045,13.075 1.045,14.623 L1.045,25.118 C1.045,26.666 2.272,27.926 3.779,27.926 L19.221,27.926 C20.729,27.926 21.954,26.666 21.954,25.118 L21.954,14.623 ZM11.500,22.556 C10.347,22.556 9.409,21.592 9.409,20.407 L9.409,17.185 C9.409,16.001 10.347,15.037 11.500,15.037 C12.654,15.037 13.591,16.001 13.591,17.185 L13.591,20.407 C13.591,21.592 12.654,22.556 11.500,22.556 ZM12.545,17.185 C12.545,16.593 12.077,16.111 11.500,16.111 C10.923,16.111 10.455,16.593 10.455,17.185 L10.455,20.407 C10.455,21.000 10.923,21.481 11.500,21.481 C12.077,21.481 12.545,21.000 12.545,20.407 L12.545,17.185 Z"
                                    />
                                </svg>