<svg 
 xmlns="http://www.w3.org/2000/svg"
 xmlns:xlink="http://www.w3.org/1999/xlink"
 width="30px" height="34px">
<defs>
<linearGradient id="PSgrad_0" x1="0%" x2="0%" y1="100%" y2="0%">
  <stop offset="0%" stop-color="rgb(4,53,127)" stop-opacity="1" />
  <stop offset="100%" stop-color="rgb(72,145,255)" stop-opacity="1" />
</linearGradient>

</defs>
<path fill-rule="evenodd"  fill="rgb(4, 53, 127)"
 d="M29.152,12.339 C28.410,13.821 26.889,15.567 23.820,15.809 C23.282,19.085 20.956,21.764 17.879,22.812 L17.879,28.249 L21.061,28.249 C21.431,28.249 21.759,28.485 21.875,28.835 L23.222,32.871 C23.308,33.133 23.265,33.420 23.104,33.644 C22.942,33.867 22.683,34.000 22.407,34.000 L7.593,34.000 C7.317,34.000 7.058,33.868 6.896,33.644 C6.735,33.420 6.691,33.133 6.779,32.872 L8.124,28.835 C8.242,28.485 8.569,28.249 8.939,28.249 L12.121,28.249 L12.121,22.812 C9.044,21.764 6.717,19.085 6.180,15.809 C3.111,15.567 1.590,13.821 0.848,12.339 C0.010,10.664 0.000,8.999 0.000,8.929 L0.000,2.876 C0.000,2.402 0.384,2.017 0.859,2.017 L6.061,2.017 L6.061,0.858 C6.061,0.384 6.445,0.000 6.920,0.000 L23.081,0.000 C23.555,0.000 23.940,0.384 23.940,0.858 L23.940,2.017 L29.141,2.017 C29.615,2.017 30.000,2.402 30.000,2.876 L30.000,8.929 C30.000,8.999 29.990,10.664 29.152,12.339 ZM6.061,3.733 L1.718,3.733 L1.718,8.929 C1.718,8.940 1.734,10.304 2.409,11.620 C3.142,13.050 4.369,13.871 6.061,14.074 L6.061,3.733 ZM9.559,29.964 L8.784,32.285 L21.216,32.285 L20.442,29.964 L9.559,29.964 ZM16.162,28.249 L16.162,23.212 C15.781,23.262 15.394,23.290 15.000,23.290 C14.606,23.290 14.219,23.262 13.839,23.212 L13.839,28.249 L16.161,28.249 L16.162,28.249 ZM22.222,1.715 L7.778,1.715 L7.778,14.361 C7.778,18.339 11.018,21.575 15.000,21.575 C18.982,21.575 22.222,18.339 22.222,14.361 L22.222,1.715 ZM28.282,3.733 L23.940,3.733 L23.940,14.074 C25.631,13.871 26.858,13.050 27.591,11.620 C28.267,10.304 28.282,8.940 28.282,8.926 L28.282,3.733 ZM18.507,11.549 L18.578,14.126 C18.586,14.408 18.453,14.676 18.224,14.843 C18.075,14.951 17.897,15.007 17.719,15.007 C17.622,15.007 17.525,14.990 17.431,14.957 L15.000,14.093 L12.569,14.957 C12.302,15.051 12.005,15.009 11.776,14.843 C11.547,14.676 11.415,14.408 11.422,14.126 L11.493,11.549 L9.920,9.506 C9.747,9.282 9.696,8.987 9.784,8.718 C9.871,8.448 10.086,8.240 10.357,8.160 L12.833,7.432 L14.292,5.306 C14.451,5.073 14.716,4.933 15.000,4.933 C15.283,4.933 15.548,5.073 15.709,5.306 L17.167,7.432 L19.642,8.160 C19.914,8.240 20.129,8.448 20.216,8.718 C20.304,8.987 20.253,9.282 20.081,9.506 L18.507,11.549 ZM16.388,8.991 C16.199,8.935 16.034,8.815 15.923,8.653 L15.000,7.308 L14.077,8.653 C13.965,8.815 13.801,8.935 13.612,8.991 L12.045,9.452 L13.041,10.745 C13.162,10.901 13.224,11.094 13.219,11.291 L13.174,12.922 L14.712,12.375 C14.806,12.342 14.902,12.325 15.000,12.325 C15.098,12.325 15.195,12.342 15.288,12.375 L16.827,12.922 L16.781,11.291 C16.776,11.094 16.839,10.901 16.959,10.745 L17.955,9.452 L16.388,8.991 Z"/>
<path fill="url(#PSgrad_0)"
 d="M29.152,12.339 C28.410,13.821 26.889,15.567 23.820,15.809 C23.282,19.085 20.956,21.764 17.879,22.812 L17.879,28.249 L21.061,28.249 C21.431,28.249 21.759,28.485 21.875,28.835 L23.222,32.871 C23.308,33.133 23.265,33.420 23.104,33.644 C22.942,33.867 22.683,34.000 22.407,34.000 L7.593,34.000 C7.317,34.000 7.058,33.868 6.896,33.644 C6.735,33.420 6.691,33.133 6.779,32.872 L8.124,28.835 C8.242,28.485 8.569,28.249 8.939,28.249 L12.121,28.249 L12.121,22.812 C9.044,21.764 6.717,19.085 6.180,15.809 C3.111,15.567 1.590,13.821 0.848,12.339 C0.010,10.664 0.000,8.999 0.000,8.929 L0.000,2.876 C0.000,2.402 0.384,2.017 0.859,2.017 L6.061,2.017 L6.061,0.858 C6.061,0.384 6.445,0.000 6.920,0.000 L23.081,0.000 C23.555,0.000 23.940,0.384 23.940,0.858 L23.940,2.017 L29.141,2.017 C29.615,2.017 30.000,2.402 30.000,2.876 L30.000,8.929 C30.000,8.999 29.990,10.664 29.152,12.339 ZM6.061,3.733 L1.718,3.733 L1.718,8.929 C1.718,8.940 1.734,10.304 2.409,11.620 C3.142,13.050 4.369,13.871 6.061,14.074 L6.061,3.733 ZM9.559,29.964 L8.784,32.285 L21.216,32.285 L20.442,29.964 L9.559,29.964 ZM16.162,28.249 L16.162,23.212 C15.781,23.262 15.394,23.290 15.000,23.290 C14.606,23.290 14.219,23.262 13.839,23.212 L13.839,28.249 L16.161,28.249 L16.162,28.249 ZM22.222,1.715 L7.778,1.715 L7.778,14.361 C7.778,18.339 11.018,21.575 15.000,21.575 C18.982,21.575 22.222,18.339 22.222,14.361 L22.222,1.715 ZM28.282,3.733 L23.940,3.733 L23.940,14.074 C25.631,13.871 26.858,13.050 27.591,11.620 C28.267,10.304 28.282,8.940 28.282,8.926 L28.282,3.733 ZM18.507,11.549 L18.578,14.126 C18.586,14.408 18.453,14.676 18.224,14.843 C18.075,14.951 17.897,15.007 17.719,15.007 C17.622,15.007 17.525,14.990 17.431,14.957 L15.000,14.093 L12.569,14.957 C12.302,15.051 12.005,15.009 11.776,14.843 C11.547,14.676 11.415,14.408 11.422,14.126 L11.493,11.549 L9.920,9.506 C9.747,9.282 9.696,8.987 9.784,8.718 C9.871,8.448 10.086,8.240 10.357,8.160 L12.833,7.432 L14.292,5.306 C14.451,5.073 14.716,4.933 15.000,4.933 C15.283,4.933 15.548,5.073 15.709,5.306 L17.167,7.432 L19.642,8.160 C19.914,8.240 20.129,8.448 20.216,8.718 C20.304,8.987 20.253,9.282 20.081,9.506 L18.507,11.549 ZM16.388,8.991 C16.199,8.935 16.034,8.815 15.923,8.653 L15.000,7.308 L14.077,8.653 C13.965,8.815 13.801,8.935 13.612,8.991 L12.045,9.452 L13.041,10.745 C13.162,10.901 13.224,11.094 13.219,11.291 L13.174,12.922 L14.712,12.375 C14.806,12.342 14.902,12.325 15.000,12.325 C15.098,12.325 15.195,12.342 15.288,12.375 L16.827,12.922 L16.781,11.291 C16.776,11.094 16.839,10.901 16.959,10.745 L17.955,9.452 L16.388,8.991 Z"/>
</svg>