<svg 
 xmlns="http://www.w3.org/2000/svg"
 xmlns:xlink="http://www.w3.org/1999/xlink"
 width="39px" height="40px">
<path fill-rule="evenodd"  fill="rgb(75, 151, 224)"
 d="M38.412,27.589 L28.165,37.849 L22.986,39.263 L22.640,39.609 C22.511,39.739 22.340,39.805 22.170,39.805 C22.002,39.805 21.834,39.740 21.705,39.613 L21.692,39.617 L21.695,39.603 C21.440,39.343 21.441,38.925 21.699,38.667 L22.045,38.321 L23.457,33.135 L33.704,22.875 C34.455,22.123 35.764,22.123 36.515,22.875 L38.412,24.775 C38.787,25.150 38.994,25.649 38.994,26.181 C38.994,26.713 38.787,27.213 38.412,27.589 ZM23.589,37.716 L26.537,36.911 L24.393,34.765 L23.589,37.716 ZM24.994,33.481 L27.819,36.310 L34.639,29.481 L31.814,26.653 L24.994,33.481 ZM37.470,25.717 L35.573,23.817 C35.325,23.569 34.893,23.569 34.645,23.817 L32.755,25.710 L35.580,28.539 L37.470,26.646 C37.594,26.522 37.662,26.357 37.663,26.181 C37.663,26.006 37.594,25.841 37.470,25.717 ZM7.327,30.667 L16.648,30.667 C17.016,30.667 17.314,30.965 17.314,31.333 C17.314,31.701 17.016,32.000 16.648,32.000 L7.327,32.000 C6.960,32.000 6.662,31.701 6.662,31.333 C6.662,30.965 6.960,30.667 7.327,30.667 ZM7.327,25.333 L18.646,25.333 C19.013,25.333 19.312,25.632 19.312,26.000 C19.312,26.368 19.013,26.667 18.646,26.667 L7.327,26.667 C6.960,26.667 6.662,26.368 6.662,26.000 C6.662,25.632 6.960,25.333 7.327,25.333 ZM23.972,21.333 L7.327,21.333 C6.960,21.333 6.662,21.035 6.662,20.667 C6.662,20.299 6.960,20.000 7.327,20.000 L23.972,20.000 C24.340,20.000 24.638,20.299 24.638,20.667 C24.638,21.035 24.340,21.333 23.972,21.333 ZM7.327,10.667 C6.960,10.667 6.662,10.368 6.662,10.000 C6.662,9.632 6.960,9.333 7.327,9.333 L13.985,9.333 C14.353,9.333 14.651,9.632 14.651,10.000 C14.651,10.368 14.353,10.667 13.985,10.667 L7.327,10.667 ZM24.638,15.333 C24.638,15.701 24.340,16.000 23.972,16.000 L7.327,16.000 C6.960,16.000 6.662,15.701 6.662,15.333 C6.662,14.965 6.960,14.667 7.327,14.667 L23.972,14.667 C24.340,14.667 24.638,14.965 24.638,15.333 ZM29.964,10.667 L20.643,10.667 L20.643,1.333 L1.335,1.333 L1.335,38.667 L19.312,38.667 L19.312,40.000 L0.004,40.000 L0.004,-0.000 L21.585,-0.000 L31.296,9.724 L31.296,22.667 L29.964,22.667 L29.964,10.667 ZM21.975,2.276 L21.975,9.333 L29.023,9.333 L21.975,2.276 Z"/>
</svg>