<svg 
 xmlns="http://www.w3.org/2000/svg"
 xmlns:xlink="http://www.w3.org/1999/xlink"
 width="24px" height="24px">
<path fill-rule="evenodd"  fill="rgb(34, 59, 97)"
 d="M12.000,23.440 C5.692,23.440 0.560,18.308 0.560,12.000 C0.560,5.692 5.692,0.560 12.000,0.560 C18.308,0.560 23.440,5.692 23.440,12.000 C23.440,18.308 18.308,23.440 12.000,23.440 ZM12.000,1.440 C6.177,1.440 1.440,6.177 1.440,12.000 C1.440,17.823 6.177,22.560 12.000,22.560 C17.823,22.560 22.560,17.823 22.560,12.000 C22.560,6.177 17.823,1.440 12.000,1.440 ZM13.906,11.000 C13.001,11.583 12.440,12.667 12.440,13.830 L12.440,15.080 C12.440,15.323 12.243,15.520 12.000,15.520 C11.757,15.520 11.560,15.323 11.560,15.080 L11.560,13.830 C11.560,12.349 12.259,11.015 13.429,10.260 C14.200,9.763 14.652,8.919 14.640,8.002 C14.620,6.611 13.429,5.420 12.038,5.401 C11.329,5.384 10.654,5.660 10.146,6.160 C9.639,6.660 9.360,7.328 9.360,8.040 C9.360,8.284 9.163,8.480 8.920,8.480 C8.677,8.480 8.480,8.284 8.480,8.040 C8.480,7.091 8.853,6.200 9.529,5.534 C10.192,4.879 11.068,4.520 11.999,4.520 C12.016,4.520 12.033,4.521 12.050,4.521 C13.936,4.547 15.493,6.104 15.520,7.990 C15.537,9.212 14.933,10.337 13.906,11.000 ZM12.000,16.840 C12.243,16.840 12.440,17.037 12.440,17.280 L12.440,18.160 C12.440,18.403 12.243,18.600 12.000,18.600 C11.757,18.600 11.560,18.403 11.560,18.160 L11.560,17.280 C11.560,17.037 11.757,16.840 12.000,16.840 Z"/>
</svg>