<svg 
 xmlns="http://www.w3.org/2000/svg"
 xmlns:xlink="http://www.w3.org/1999/xlink"
 width="20px" height="22px">
<path fill-rule="evenodd"  fill="rgb(39, 63, 100)"
 d="M19.257,21.400 L0.743,21.400 C0.553,21.400 0.400,21.245 0.400,21.053 L0.400,6.147 L0.400,2.333 C0.400,2.142 0.553,1.987 0.743,1.987 L3.143,1.987 L3.143,0.947 C3.143,0.755 3.296,0.600 3.486,0.600 L5.886,0.600 C6.075,0.600 6.228,0.755 6.228,0.947 L6.228,1.987 L13.772,1.987 L13.772,0.947 C13.772,0.755 13.925,0.600 14.114,0.600 L16.514,0.600 C16.704,0.600 16.857,0.755 16.857,0.947 L16.857,1.987 L19.257,1.987 C19.447,1.987 19.600,2.142 19.600,2.333 L19.600,6.147 L19.600,21.053 C19.600,21.245 19.447,21.400 19.257,21.400 ZM5.543,2.333 L5.543,1.293 L3.828,1.293 L3.828,2.333 L3.828,3.373 L5.543,3.373 L5.543,2.333 ZM16.172,2.333 L16.172,1.293 L14.457,1.293 L14.457,2.333 L14.457,3.373 L16.172,3.373 L16.172,2.333 ZM18.914,2.680 L16.857,2.680 L16.857,3.720 C16.857,3.912 16.704,4.067 16.514,4.067 L14.114,4.067 C13.925,4.067 13.772,3.912 13.772,3.720 L13.772,2.680 L6.228,2.680 L6.228,3.720 C6.228,3.912 6.075,4.067 5.886,4.067 L3.486,4.067 C3.296,4.067 3.143,3.912 3.143,3.720 L3.143,2.680 L1.086,2.680 L1.086,5.800 L18.914,5.800 L18.914,2.680 ZM18.914,6.493 L1.086,6.493 L1.086,20.707 L18.914,20.707 L18.914,6.493 ZM7.257,8.573 L9.657,8.573 L10.343,8.573 L12.743,8.573 L13.428,8.573 L16.514,8.573 L16.514,11.693 L16.514,12.387 L16.514,14.813 L16.514,15.507 L16.514,18.627 L13.428,18.627 L12.743,18.627 L10.343,18.627 L9.657,18.627 L7.257,18.627 L6.572,18.627 L3.486,18.627 L3.486,15.507 L3.486,14.813 L3.486,12.387 L3.486,11.693 L3.486,8.573 L6.572,8.573 L7.257,8.573 ZM13.428,17.933 L15.828,17.933 L15.828,15.507 L13.428,15.507 L13.428,17.933 ZM13.428,14.813 L15.828,14.813 L15.828,12.387 L13.428,12.387 L13.428,14.813 ZM13.428,11.693 L15.828,11.693 L15.828,9.267 L13.428,9.267 L13.428,11.693 ZM10.343,17.933 L12.743,17.933 L12.743,15.507 L10.343,15.507 L10.343,17.933 ZM10.343,14.813 L12.743,14.813 L12.743,12.387 L10.343,12.387 L10.343,14.813 ZM10.343,11.693 L12.743,11.693 L12.743,9.267 L10.343,9.267 L10.343,11.693 ZM7.257,17.933 L9.657,17.933 L9.657,15.507 L7.257,15.507 L7.257,17.933 ZM7.257,14.813 L9.657,14.813 L9.657,12.387 L7.257,12.387 L7.257,14.813 ZM7.257,11.693 L9.657,11.693 L9.657,9.267 L7.257,9.267 L7.257,11.693 ZM4.172,17.933 L6.572,17.933 L6.572,15.507 L4.172,15.507 L4.172,17.933 ZM4.172,14.813 L6.572,14.813 L6.572,12.387 L4.172,12.387 L4.172,14.813 ZM4.172,11.693 L6.572,11.693 L6.572,9.267 L4.172,9.267 L4.172,11.693 Z"/>
</svg>