<svg 
 xmlns="http://www.w3.org/2000/svg"
 xmlns:xlink="http://www.w3.org/1999/xlink"
 width="23px" height="23px">
<path fill-rule="evenodd"  fill="rgb(62, 83, 116)"
 d="M11.500,22.300 C5.545,22.300 0.700,17.455 0.700,11.500 C0.700,5.545 5.545,0.700 11.500,0.700 C17.455,0.700 22.300,5.545 22.300,11.500 C22.300,17.455 17.455,22.300 11.500,22.300 ZM11.500,1.420 C5.942,1.420 1.420,5.942 1.420,11.500 C1.420,17.058 5.942,21.580 11.500,21.580 C17.058,21.580 21.580,17.058 21.580,11.500 C21.580,5.942 17.058,1.420 11.500,1.420 ZM11.500,12.220 L5.740,12.220 C5.541,12.220 5.380,12.059 5.380,11.860 C5.380,11.661 5.541,11.500 5.740,11.500 L11.140,11.500 L11.140,3.220 C11.140,3.021 11.301,2.860 11.500,2.860 C11.699,2.860 11.860,3.021 11.860,3.220 L11.860,11.860 C11.860,12.059 11.699,12.220 11.500,12.220 Z"/>
</svg>