<svg 
 xmlns="http://www.w3.org/2000/svg"
 xmlns:xlink="http://www.w3.org/1999/xlink"
 width="49px" height="60px">
<path fill-rule="evenodd"  fill="rgb(241, 245, 249)"
 d="M47.919,25.516 L46.032,25.516 C45.436,25.516 44.952,25.034 44.952,24.438 C44.952,23.843 45.436,23.360 46.032,23.360 L47.919,23.360 C48.516,23.360 49.000,23.843 49.000,24.438 C49.000,25.034 48.516,25.516 47.919,25.516 ZM45.322,13.692 L43.688,14.632 C43.518,14.731 43.332,14.777 43.148,14.777 C42.775,14.777 42.412,14.584 42.212,14.238 C41.913,13.723 42.090,13.063 42.607,12.766 L44.241,11.825 C44.758,11.527 45.419,11.703 45.717,12.219 C46.016,12.735 45.839,13.394 45.322,13.692 ZM37.652,36.942 C35.116,39.545 33.720,42.928 33.720,46.465 L33.720,48.933 C33.720,52.401 31.490,55.357 28.385,56.454 L28.385,56.945 C28.385,58.629 27.012,60.000 25.323,60.000 L23.677,60.000 C21.988,60.000 20.614,58.630 20.614,56.945 L20.614,56.454 C17.510,55.358 15.279,52.401 15.279,48.933 L15.279,46.465 C15.279,42.933 13.878,39.546 11.335,36.928 C8.066,33.564 6.232,29.134 6.170,24.452 C6.037,14.376 14.141,6.064 24.236,5.922 C29.185,5.853 33.849,7.722 37.370,11.185 C40.891,14.649 42.831,19.273 42.831,24.206 C42.831,28.988 40.991,33.511 37.652,36.942 ZM22.776,56.945 C22.776,57.441 23.180,57.844 23.677,57.844 L25.323,57.844 C25.820,57.844 26.225,57.441 26.225,56.945 L26.225,56.945 L26.225,56.893 C26.059,56.903 25.892,56.910 25.724,56.910 L23.276,56.910 C23.108,56.910 22.941,56.903 22.776,56.893 L22.776,56.945 ZM23.276,54.754 L25.723,54.754 C28.095,54.754 30.138,53.336 31.051,51.305 L17.949,51.305 C18.861,53.336 20.905,54.754 23.276,54.754 ZM17.440,48.933 C17.440,49.006 17.443,49.078 17.445,49.150 L31.554,49.150 C31.557,49.078 31.559,49.006 31.559,48.933 L31.559,47.543 L17.440,47.543 L17.440,48.933 ZM24.500,23.300 C23.843,23.300 23.202,23.175 22.603,22.937 L21.923,23.948 C23.606,24.413 25.393,24.413 27.076,23.948 L26.396,22.937 C25.797,23.175 25.156,23.300 24.500,23.300 ZM25.144,21.074 L24.500,20.115 L23.855,21.074 C24.065,21.120 24.281,21.144 24.500,21.144 C24.719,21.144 24.934,21.120 25.144,21.074 ZM21.330,26.020 L21.330,45.387 L23.419,45.387 L23.419,26.403 C22.715,26.339 22.016,26.211 21.330,26.020 ZM25.580,26.403 L25.580,45.387 L27.669,45.387 L27.669,26.020 C26.984,26.211 26.285,26.339 25.580,26.403 ZM35.852,12.720 C32.802,9.720 28.779,8.077 24.501,8.077 C24.423,8.077 24.345,8.077 24.267,8.078 C19.973,8.138 15.945,9.877 12.926,12.976 C9.906,16.074 8.274,20.139 8.331,24.423 C8.386,28.553 10.004,32.461 12.886,35.428 C15.564,38.184 17.144,41.686 17.402,45.388 L19.169,45.388 L19.169,24.503 C19.169,24.289 19.233,24.080 19.352,23.903 L23.602,17.579 C23.803,17.281 24.139,17.102 24.500,17.102 C24.860,17.102 25.196,17.281 25.397,17.579 L29.647,23.903 C29.767,24.080 29.830,24.289 29.830,24.503 L29.830,45.387 L31.597,45.387 C31.854,41.682 33.430,38.183 36.101,35.440 C39.047,32.414 40.670,28.424 40.669,24.206 C40.669,19.854 38.959,15.776 35.852,12.720 ZM38.148,25.283 C37.552,25.283 37.068,24.801 37.068,24.206 C37.068,18.638 33.318,13.680 27.949,12.149 C27.376,11.985 27.043,11.389 27.207,10.816 C27.371,10.244 27.970,9.913 28.543,10.076 C34.835,11.870 39.229,17.680 39.229,24.206 C39.229,24.801 38.745,25.283 38.148,25.283 ZM25.251,11.689 C25.231,11.689 25.211,11.689 25.191,11.687 C24.902,11.672 24.609,11.666 24.317,11.670 C24.312,11.670 24.307,11.670 24.302,11.670 C23.712,11.670 23.230,11.197 23.221,10.607 C23.213,10.012 23.690,9.523 24.287,9.515 C24.628,9.510 24.970,9.517 25.309,9.535 C25.905,9.568 26.362,10.076 26.329,10.670 C26.298,11.244 25.821,11.689 25.251,11.689 ZM36.202,6.376 C36.002,6.722 35.639,6.916 35.265,6.916 C35.082,6.916 34.896,6.869 34.726,6.771 C34.209,6.473 34.032,5.814 34.330,5.298 L35.274,3.669 C35.572,3.153 36.233,2.977 36.750,3.274 C37.267,3.572 37.444,4.231 37.145,4.747 L36.202,6.376 ZM24.500,4.038 C23.903,4.038 23.419,3.555 23.419,2.960 L23.419,1.078 C23.419,0.483 23.903,-0.000 24.500,-0.000 C25.097,-0.000 25.581,0.483 25.581,1.078 L25.581,2.960 C25.581,3.555 25.097,4.038 24.500,4.038 ZM14.274,6.771 C14.104,6.869 13.918,6.916 13.735,6.916 C13.361,6.916 12.998,6.723 12.798,6.377 L11.854,4.747 C11.556,4.231 11.733,3.572 12.250,3.274 C12.766,2.977 13.428,3.153 13.726,3.669 L14.670,5.299 C14.968,5.814 14.791,6.473 14.274,6.771 ZM5.851,14.777 C5.668,14.777 5.482,14.731 5.312,14.632 L3.678,13.692 C3.161,13.394 2.984,12.735 3.283,12.219 C3.581,11.704 4.242,11.527 4.759,11.825 L6.393,12.766 C6.909,13.063 7.087,13.723 6.788,14.238 C6.588,14.584 6.225,14.777 5.851,14.777 ZM4.046,24.438 C4.046,25.034 3.563,25.516 2.966,25.516 L1.081,25.516 C0.484,25.516 -0.000,25.034 -0.000,24.438 C-0.000,23.843 0.484,23.360 1.081,23.360 L2.966,23.360 C3.563,23.360 4.046,23.843 4.046,24.438 ZM3.678,35.185 L5.311,34.244 C5.827,33.947 6.488,34.123 6.787,34.639 C7.085,35.154 6.908,35.814 6.391,36.111 L4.758,37.052 C4.588,37.150 4.403,37.196 4.219,37.196 C3.846,37.196 3.483,37.003 3.282,36.657 C2.984,36.142 3.161,35.482 3.678,35.185 ZM43.689,34.244 L45.322,35.185 C45.839,35.482 46.016,36.142 45.717,36.657 C45.517,37.003 45.154,37.196 44.781,37.196 C44.597,37.196 44.411,37.150 44.241,37.052 L42.609,36.111 C42.092,35.814 41.915,35.154 42.213,34.639 C42.511,34.124 43.172,33.947 43.689,34.244 Z"/>
</svg>