<svg 
 xmlns="http://www.w3.org/2000/svg"
 xmlns:xlink="http://www.w3.org/1999/xlink"
 width="45px" height="55px">
<path fill-rule="evenodd"  fill="rgb(241, 245, 249)"
 d="M41.087,32.470 L41.087,38.102 C41.087,47.420 33.627,55.000 24.456,55.000 L20.544,55.000 C11.373,55.000 3.913,47.420 3.913,38.102 L3.913,37.771 L0.000,37.771 L0.000,29.157 L3.913,29.157 L3.913,25.843 L0.000,25.843 L0.000,17.229 L3.913,17.229 L3.913,16.898 C3.913,7.580 11.373,-0.000 20.544,-0.000 L24.456,-0.000 C33.627,-0.000 41.087,7.580 41.087,16.898 L41.087,23.856 L45.000,23.856 L45.000,32.470 L41.087,32.470 ZM3.913,19.217 L1.957,19.217 L1.957,23.856 L3.913,23.856 L3.913,19.217 ZM3.913,31.145 L1.957,31.145 L1.957,35.783 L3.913,35.783 L3.913,31.145 ZM39.130,16.898 C39.130,8.676 32.548,1.988 24.456,1.988 L20.544,1.988 C12.452,1.988 5.869,8.676 5.869,16.898 L5.869,38.102 C5.869,46.324 12.452,53.012 20.544,53.012 L21.522,53.012 L21.522,47.380 L23.478,47.380 L23.478,53.012 L24.456,53.012 C32.548,53.012 39.130,46.324 39.130,38.102 L39.130,16.898 ZM43.044,25.843 L41.087,25.843 L41.087,30.482 L43.044,30.482 L43.044,25.843 ZM30.326,45.723 C26.910,45.723 24.130,42.899 24.130,39.428 C24.130,35.957 26.910,33.133 30.326,33.133 C33.742,33.133 36.522,35.957 36.522,39.428 C36.522,42.899 33.742,45.723 30.326,45.723 ZM34.450,38.434 C34.007,36.537 32.327,35.121 30.326,35.121 C27.989,35.121 26.087,37.053 26.087,39.428 C26.087,41.803 27.989,43.735 30.326,43.735 C32.327,43.735 34.007,42.319 34.450,40.422 L29.022,40.422 L29.022,38.434 L34.450,38.434 ZM22.500,31.145 C15.487,31.145 9.783,25.348 9.783,18.223 C9.783,11.098 15.487,5.301 22.500,5.301 C29.512,5.301 35.217,11.098 35.217,18.223 C35.217,25.348 29.512,31.145 22.500,31.145 ZM33.214,17.229 C33.027,15.125 32.251,13.191 31.054,11.600 L28.409,14.287 L27.025,12.882 L29.731,10.133 C28.046,8.576 25.874,7.557 23.478,7.336 L23.478,10.934 L21.522,10.934 L21.522,7.336 C19.126,7.557 16.954,8.576 15.269,10.133 L17.322,12.219 L15.938,13.625 L13.946,11.600 C12.749,13.191 11.973,15.125 11.786,17.229 L15.326,17.229 L15.326,19.217 L11.786,19.217 C12.282,24.781 16.896,29.157 22.500,29.157 C28.104,29.157 32.718,24.781 33.214,19.217 L29.674,19.217 L29.674,17.229 L33.214,17.229 ZM22.500,25.181 C20.522,25.181 18.913,23.546 18.913,21.536 C18.913,19.871 20.018,18.465 21.522,18.031 L21.522,13.584 L23.478,13.584 L23.478,18.031 C24.982,18.465 26.087,19.871 26.087,21.536 C26.087,23.546 24.478,25.181 22.500,25.181 ZM22.500,19.880 C21.601,19.880 20.869,20.623 20.869,21.536 C20.869,22.450 21.601,23.193 22.500,23.193 C23.399,23.193 24.130,22.450 24.130,21.536 C24.130,20.623 23.399,19.880 22.500,19.880 ZM14.674,33.133 C18.090,33.133 20.869,35.957 20.869,39.428 C20.869,42.899 18.090,45.723 14.674,45.723 C11.258,45.723 8.478,42.899 8.478,39.428 C8.478,35.957 11.258,33.133 14.674,33.133 ZM10.550,40.422 C10.993,42.319 12.673,43.735 14.674,43.735 C17.011,43.735 18.913,41.803 18.913,39.428 C18.913,37.053 17.011,35.121 14.674,35.121 C12.673,35.121 10.993,36.537 10.550,38.434 L15.326,38.434 L15.326,40.422 L10.550,40.422 Z"/>
</svg>