<svg 
 xmlns="http://www.w3.org/2000/svg"
 xmlns:xlink="http://www.w3.org/1999/xlink"
 width="52px" height="51px">
<path fill-rule="evenodd"  fill="rgb(241, 245, 249)"
 d="M47.887,14.476 L43.513,16.999 C43.356,17.089 43.185,17.133 43.016,17.133 C42.671,17.133 42.336,16.954 42.152,16.634 C41.876,16.158 42.040,15.549 42.517,15.274 L46.890,12.751 C47.367,12.476 47.976,12.639 48.251,13.116 C48.527,13.592 48.363,14.201 47.887,14.476 ZM36.483,9.245 C36.298,9.564 35.963,9.743 35.619,9.743 C35.450,9.743 35.279,9.700 35.122,9.609 C34.645,9.334 34.481,8.725 34.757,8.249 L37.282,3.879 C37.557,3.403 38.166,3.239 38.643,3.514 C39.120,3.790 39.284,4.399 39.008,4.875 L36.483,9.245 ZM25.518,7.038 C24.967,7.038 24.521,6.592 24.521,6.042 L24.521,0.996 C24.521,0.446 24.967,-0.000 25.518,-0.000 C26.068,-0.000 26.515,0.446 26.515,0.996 L26.515,6.042 C26.515,6.592 26.068,7.038 25.518,7.038 ZM15.914,9.609 C15.757,9.700 15.586,9.743 15.416,9.743 C15.072,9.743 14.737,9.564 14.552,9.245 L12.027,4.875 C11.752,4.399 11.915,3.789 12.392,3.514 C12.869,3.239 13.478,3.403 13.754,3.879 L16.279,8.249 C16.554,8.725 16.391,9.334 15.914,9.609 ZM8.019,17.133 C7.850,17.133 7.679,17.089 7.522,16.999 L3.149,14.476 C2.672,14.201 2.508,13.592 2.784,13.116 C3.059,12.639 3.669,12.476 4.145,12.751 L8.519,15.274 C8.996,15.549 9.159,16.158 8.884,16.634 C8.699,16.954 8.364,17.133 8.019,17.133 ZM6.378,24.517 L8.450,24.517 C8.891,15.569 16.314,8.425 25.376,8.425 C34.438,8.425 41.861,15.569 42.302,24.517 L44.658,24.517 C45.126,24.517 45.531,24.842 45.631,25.299 L51.014,49.790 C51.079,50.085 51.007,50.393 50.817,50.628 C50.628,50.863 50.342,51.000 50.041,51.000 L0.995,51.000 C0.693,51.000 0.407,50.863 0.218,50.628 C0.029,50.393 -0.044,50.085 0.021,49.790 L5.404,25.299 C5.505,24.842 5.910,24.517 6.378,24.517 ZM25.376,10.417 C17.414,10.417 10.886,16.668 10.447,24.517 L40.305,24.517 C39.866,16.668 33.338,10.417 25.376,10.417 ZM19.266,34.664 L18.801,40.840 L32.234,40.840 L31.769,34.664 L19.266,34.664 ZM31.619,32.672 L31.155,26.509 L19.881,26.509 L19.417,32.672 L31.619,32.672 ZM34.849,49.008 L48.801,49.008 L47.444,42.832 L34.384,42.832 L34.849,49.008 ZM34.234,40.840 L47.006,40.840 L45.648,34.664 L33.769,34.664 L34.234,40.840 ZM33.618,32.672 L45.210,32.672 L43.856,26.509 L33.154,26.509 L33.618,32.672 ZM32.850,49.008 L32.384,42.832 L18.651,42.832 L18.186,49.008 L32.850,49.008 ZM17.881,26.509 L7.180,26.509 L5.825,32.672 L17.417,32.672 L17.881,26.509 ZM2.234,49.008 L16.186,49.008 L16.652,42.832 L3.592,42.832 L2.234,49.008 ZM4.030,40.840 L16.802,40.840 L17.267,34.664 L5.387,34.664 L4.030,40.840 ZM25.376,12.318 C29.233,12.318 32.872,14.011 35.360,16.961 C35.715,17.382 35.661,18.010 35.240,18.364 C35.053,18.522 34.825,18.598 34.598,18.598 C34.314,18.598 34.033,18.478 33.835,18.244 C31.727,15.744 28.644,14.311 25.376,14.311 C24.826,14.311 24.379,13.865 24.379,13.314 C24.379,12.764 24.825,12.318 25.376,12.318 ZM36.103,19.745 C36.613,19.537 37.194,19.778 37.402,20.287 L37.405,20.293 C37.613,20.803 37.369,21.384 36.860,21.592 C36.736,21.643 36.608,21.667 36.483,21.667 C36.090,21.667 35.717,21.433 35.559,21.047 C35.351,20.538 35.594,19.954 36.103,19.745 Z"/>
</svg>