<svg 
 xmlns="http://www.w3.org/2000/svg"
 xmlns:xlink="http://www.w3.org/1999/xlink"
 width="51px" height="60px">
<path fill-rule="evenodd"  fill="rgb(241, 245, 249)"
 d="M50.578,15.401 L44.335,27.203 C45.612,27.492 46.605,28.723 46.605,30.099 L46.605,38.570 L47.811,38.570 C48.449,38.570 48.946,39.077 48.946,39.728 L48.946,48.344 C48.946,48.995 48.449,49.502 47.811,49.502 L46.605,49.502 L46.605,57.032 C46.605,58.697 45.328,60.000 43.697,60.000 L2.908,60.000 C1.277,60.000 -0.000,58.697 -0.000,57.032 L-0.000,30.026 L-0.000,24.813 C-0.000,23.148 1.277,21.845 2.908,21.845 L15.677,21.845 L26.175,1.935 C27.098,0.197 29.438,-0.527 31.141,0.414 L49.088,10.333 C50.861,11.347 51.500,13.591 50.578,15.401 ZM46.534,47.185 L46.605,47.185 L46.605,40.886 L46.534,40.886 L39.866,40.886 C39.228,40.886 38.731,41.393 38.731,42.045 L38.731,46.027 C38.731,46.679 39.228,47.185 39.866,47.185 L46.534,47.185 ZM2.199,57.032 C2.199,57.394 2.483,57.683 2.837,57.683 L43.626,57.683 C43.980,57.683 44.264,57.394 44.264,57.032 L44.264,49.502 L39.866,49.502 C38.022,49.502 36.461,47.982 36.461,46.027 L36.461,42.045 C36.461,40.162 37.951,38.570 39.866,38.570 L44.193,38.570 L44.193,30.099 C44.193,29.737 43.910,29.447 43.555,29.447 L42.349,29.447 L26.388,29.447 L18.089,29.447 L13.549,29.447 L2.837,29.447 C2.483,29.447 2.199,29.737 2.199,30.099 L2.199,57.032 ZM2.837,24.162 C2.483,24.162 2.199,24.524 2.199,24.741 L2.199,27.130 C2.412,27.058 2.625,27.058 2.837,27.058 L12.839,27.058 L14.400,24.162 L2.837,24.162 ZM30.077,2.441 C29.438,2.080 28.587,2.369 28.233,3.021 L15.464,27.130 L19.366,27.130 L31.850,3.455 L30.077,2.441 ZM33.908,4.614 L21.919,27.130 L25.111,27.130 L36.319,5.917 L33.908,4.614 ZM47.953,12.433 L38.306,7.075 L27.665,27.130 L41.711,27.130 L48.520,14.243 C48.875,13.591 48.662,12.723 47.953,12.433 ZM44.761,18.732 C44.193,19.673 43.200,20.325 42.065,20.325 C41.569,20.325 41.072,20.180 40.647,19.963 L40.079,19.673 C39.370,19.311 38.802,18.659 38.589,17.863 C38.306,17.067 38.447,16.198 38.802,15.474 L39.511,14.098 C40.292,12.650 42.207,12.071 43.626,12.867 L44.193,13.157 C45.612,13.953 46.180,15.836 45.470,17.356 L44.761,18.732 ZM43.129,15.112 L42.562,14.822 C42.420,14.750 42.349,14.750 42.207,14.750 C41.923,14.750 41.640,14.967 41.498,15.184 L40.788,16.560 C40.647,16.705 40.647,16.922 40.717,17.139 C40.788,17.284 40.930,17.501 41.072,17.573 L41.640,17.935 C41.994,18.153 42.491,18.008 42.704,17.646 L43.413,16.270 C43.555,15.836 43.413,15.401 43.129,15.112 Z"/>
</svg>