<svg 
 xmlns="http://www.w3.org/2000/svg"
 xmlns:xlink="http://www.w3.org/1999/xlink"
 width="42px" height="56px">
<path fill-rule="evenodd"  fill="rgb(241, 245, 249)"
 d="M39.239,56.000 L2.761,56.000 C1.238,56.000 0.000,54.762 0.000,53.240 L0.000,2.760 C0.000,1.238 1.239,0.000 2.761,0.000 L30.650,0.000 C31.011,0.000 31.339,0.146 31.576,0.383 C31.576,0.384 31.576,0.384 31.577,0.384 L41.616,10.421 C41.863,10.668 41.993,10.998 41.997,11.334 C41.997,11.339 42.000,11.343 42.000,11.348 L42.000,53.240 C42.000,54.762 40.761,56.000 39.239,56.000 ZM31.961,4.477 L31.961,9.899 C31.961,9.975 32.023,10.037 32.099,10.037 L37.522,10.037 L31.961,4.477 ZM39.377,12.659 L32.099,12.659 C30.577,12.659 29.338,11.421 29.338,9.899 L29.338,2.622 L2.761,2.622 C2.685,2.622 2.623,2.684 2.623,2.760 L2.623,53.240 C2.623,53.316 2.685,53.378 2.761,53.378 L39.239,53.378 C39.315,53.378 39.377,53.316 39.377,53.240 L39.377,12.659 ZM32.606,36.386 L9.394,36.386 C8.670,36.386 8.083,35.798 8.083,35.074 C8.083,34.350 8.670,33.763 9.394,33.763 L32.606,33.763 C33.330,33.763 33.917,34.350 33.917,35.074 C33.917,35.798 33.330,36.386 32.606,36.386 ZM32.606,28.474 L9.394,28.474 C8.670,28.474 8.083,27.887 8.083,27.162 C8.083,26.438 8.670,25.851 9.394,25.851 L32.606,25.851 C33.330,25.851 33.917,26.438 33.917,27.162 C33.917,27.887 33.330,28.474 32.606,28.474 ZM32.606,20.561 L9.394,20.561 C8.670,20.561 8.083,19.974 8.083,19.250 C8.083,18.526 8.670,17.939 9.394,17.939 L32.606,17.939 C33.330,17.939 33.917,18.526 33.917,19.250 C33.917,19.974 33.330,20.561 32.606,20.561 ZM9.394,41.675 L21.000,41.675 C21.724,41.675 22.311,42.262 22.311,42.986 C22.311,43.711 21.724,44.298 21.000,44.298 L9.394,44.298 C8.670,44.298 8.083,43.711 8.083,42.986 C8.083,42.263 8.670,41.675 9.394,41.675 Z"/>
</svg>