<svg 
 xmlns="http://www.w3.org/2000/svg"
 xmlns:xlink="http://www.w3.org/1999/xlink"
 width="286px" height="349px">
<path fill-rule="evenodd"  opacity="0.231" fill="rgb(63, 85, 118)"
 d="M239.007,349.000 L46.983,349.000 C21.080,349.000 -0.006,328.041 -0.006,302.278 L-0.006,175.980 C-0.006,150.217 21.080,129.262 46.983,129.262 L233.999,129.262 L233.999,93.714 C233.999,49.162 193.178,12.924 142.996,12.924 C92.822,12.924 51.998,49.162 51.998,93.714 C51.998,97.289 49.090,100.174 45.498,100.174 C41.904,100.174 38.996,97.289 38.996,93.714 C38.996,42.042 85.657,-0.002 142.996,-0.002 C200.342,-0.002 246.996,42.042 246.996,93.714 L246.996,129.989 C269.101,133.776 285.996,152.930 285.996,175.980 L285.996,302.278 C285.996,328.041 264.918,349.000 239.007,349.000 ZM273.000,175.980 C273.000,157.347 257.746,142.187 239.007,142.187 L46.983,142.187 C28.245,142.187 12.997,157.347 12.997,175.980 L12.997,302.278 C12.997,320.909 28.245,336.075 46.983,336.075 L239.007,336.075 C257.746,336.075 273.000,320.909 273.000,302.278 L273.000,175.980 ZM142.996,271.445 C128.659,271.445 116.997,259.850 116.997,245.592 L116.997,206.813 C116.997,192.557 128.659,180.960 142.996,180.960 C157.340,180.960 169.000,192.557 169.000,206.813 L169.000,245.592 C169.000,259.850 157.340,271.445 142.996,271.445 ZM155.998,206.813 C155.998,199.689 150.166,193.887 142.996,193.887 C135.831,193.887 130.001,199.689 130.001,206.813 L130.001,245.592 C130.001,252.724 135.831,258.519 142.996,258.519 C150.166,258.519 155.998,252.724 155.998,245.592 L155.998,206.813 Z"/>
</svg>