<!DOCTYPE html>
<svg style="display:none;">

    <symbol id="mobile"  viewBox="0 0 18 28">
        <path fill-rule="evenodd" fill="rgb(7, 35, 78)" d="M16.230,28.000 L1.769,28.000 C0.794,28.000 0.000,27.205 0.000,26.227 L0.000,1.773 C0.000,0.795 0.794,0.000 1.769,0.000 L16.230,0.000 C17.206,0.000 18.000,0.795 18.000,1.773 L18.000,26.227 C18.000,27.205 17.206,28.000 16.230,28.000 ZM17.114,1.773 C17.114,1.285 16.718,0.888 16.230,0.888 L1.769,0.888 C1.282,0.888 0.886,1.285 0.886,1.773 L0.886,3.863 L17.114,3.863 L17.114,1.773 ZM17.114,4.456 L0.886,4.456 L0.886,22.973 L17.114,22.973 L17.114,4.456 ZM17.114,23.565 L0.886,23.565 L0.886,26.227 C0.886,26.715 1.282,27.112 1.769,27.112 L16.230,27.112 C16.718,27.112 17.114,26.715 17.114,26.227 L17.114,23.565 ZM9.000,26.867 C8.199,26.867 7.548,26.215 7.548,25.412 C7.548,24.610 8.199,23.958 9.000,23.958 C9.800,23.958 10.452,24.610 10.452,25.412 C10.452,26.215 9.800,26.867 9.000,26.867 ZM9.000,24.550 C8.525,24.550 8.139,24.937 8.139,25.412 C8.139,25.888 8.525,26.275 9.000,26.275 C9.475,26.275 9.860,25.888 9.860,25.412 C9.860,24.937 9.475,24.550 9.000,24.550 ZM5.926,2.229 C6.004,2.229 6.080,2.261 6.135,2.316 C6.190,2.371 6.223,2.447 6.223,2.525 C6.223,2.603 6.190,2.679 6.135,2.735 C6.080,2.790 6.004,2.821 5.926,2.821 C5.849,2.821 5.773,2.790 5.718,2.735 C5.662,2.679 5.631,2.603 5.631,2.525 C5.631,2.447 5.662,2.371 5.718,2.316 C5.773,2.261 5.849,2.229 5.926,2.229 ZM6.990,2.229 L11.010,2.229 C11.173,2.229 11.305,2.362 11.305,2.525 C11.305,2.689 11.173,2.821 11.010,2.821 L6.990,2.821 C6.827,2.821 6.695,2.689 6.695,2.525 C6.695,2.362 6.827,2.229 6.990,2.229 Z"
        />
    </symbol>

    <symbol id="lock"  viewBox="0 0 18 22">
        <path fill-rule="evenodd" fill="rgb(34, 59, 97)" d="M19.221,29.000 L3.779,29.000 C1.695,29.000 -0.000,27.258 -0.000,25.118 L-0.000,14.623 C-0.000,12.482 1.695,10.741 3.779,10.741 L18.818,10.741 L18.818,7.787 C18.818,4.085 15.536,1.074 11.500,1.074 C7.465,1.074 4.182,4.085 4.182,7.787 C4.182,8.084 3.948,8.324 3.659,8.324 C3.370,8.324 3.137,8.084 3.137,7.787 C3.137,3.494 6.889,0.000 11.500,0.000 C16.111,0.000 19.863,3.494 19.863,7.787 L19.863,10.801 C21.641,11.116 23.000,12.708 23.000,14.623 L23.000,25.118 C23.000,27.258 21.305,29.000 19.221,29.000 ZM21.954,14.623 C21.954,13.075 20.729,11.815 19.221,11.815 L3.779,11.815 C2.272,11.815 1.045,13.075 1.045,14.623 L1.045,25.118 C1.045,26.666 2.272,27.926 3.779,27.926 L19.221,27.926 C20.729,27.926 21.954,26.666 21.954,25.118 L21.954,14.623 ZM11.500,22.556 C10.347,22.556 9.409,21.592 9.409,20.407 L9.409,17.185 C9.409,16.001 10.347,15.037 11.500,15.037 C12.654,15.037 13.591,16.001 13.591,17.185 L13.591,20.407 C13.591,21.592 12.654,22.556 11.500,22.556 ZM12.545,17.185 C12.545,16.593 12.077,16.111 11.500,16.111 C10.923,16.111 10.455,16.593 10.455,17.185 L10.455,20.407 C10.455,21.000 10.923,21.481 11.500,21.481 C12.077,21.481 12.545,21.000 12.545,20.407 L12.545,17.185 Z"
        />
    </symbol>
</svg>
