<svg xmlns="http://www.w3.org/2000/svg" xmlns:xlink="http://www.w3.org/1999/xlink" width="28px" height="28px">
    <path fill-rule="evenodd" fill="rgb(34, 59, 97)" d="M28.000,14.000 C28.000,6.281 21.719,0.000 14.000,0.000 C6.281,0.000 0.000,6.281 0.000,14.000 C0.000,18.077 1.753,21.753 4.544,24.313 L4.531,24.325 L4.986,24.708 C5.014,24.733 5.047,24.753 5.076,24.777 C5.318,24.977 5.568,25.167 5.822,25.351 C5.904,25.411 5.986,25.470 6.071,25.528 C6.343,25.716 6.622,25.893 6.907,26.062 C6.969,26.099 7.031,26.134 7.094,26.170 C7.406,26.347 7.725,26.515 8.052,26.669 C8.075,26.680 8.099,26.690 8.124,26.701 C9.187,27.196 10.323,27.559 11.510,27.773 C11.540,27.778 11.572,27.784 11.603,27.790 C11.972,27.853 12.344,27.904 12.722,27.938 C12.768,27.942 12.814,27.945 12.860,27.949 C13.235,27.980 13.616,28.000 14.000,28.000 C14.381,28.000 14.758,27.980 15.131,27.950 C15.179,27.946 15.226,27.943 15.274,27.939 C15.648,27.905 16.017,27.856 16.382,27.793 C16.413,27.788 16.446,27.782 16.477,27.776 C17.647,27.566 18.766,27.212 19.815,26.730 C19.854,26.712 19.893,26.695 19.932,26.677 C20.247,26.529 20.553,26.370 20.853,26.200 C20.928,26.158 21.003,26.115 21.078,26.072 C21.351,25.910 21.621,25.742 21.882,25.563 C21.976,25.498 22.068,25.431 22.162,25.363 C22.385,25.202 22.604,25.037 22.818,24.863 C22.865,24.825 22.916,24.792 22.962,24.752 L23.429,24.364 L23.415,24.352 C26.230,21.790 28.000,18.098 28.000,14.000 ZM1.018,14.000 C1.018,6.842 6.842,1.018 14.000,1.018 C21.159,1.018 26.981,6.842 26.981,14.000 C26.981,17.858 25.289,21.325 22.610,23.705 C22.460,23.602 22.308,23.509 22.154,23.431 L17.844,21.276 C17.457,21.083 17.217,20.694 17.217,20.262 L17.217,18.756 C17.316,18.633 17.422,18.494 17.531,18.341 C18.089,17.552 18.537,16.676 18.863,15.733 C19.508,15.426 19.924,14.783 19.924,14.058 L19.924,12.253 C19.924,11.812 19.763,11.384 19.473,11.047 L19.473,8.671 C19.499,8.407 19.593,6.916 18.514,5.686 C17.576,4.615 16.057,4.073 14.000,4.073 C11.943,4.073 10.424,4.615 9.486,5.686 C8.407,6.916 8.501,8.407 8.527,8.671 L8.527,11.047 C8.238,11.383 8.076,11.811 8.076,12.253 L8.076,14.057 C8.076,14.618 8.327,15.141 8.758,15.494 C9.170,17.109 10.019,18.332 10.332,18.746 L10.332,20.220 C10.332,20.635 10.106,21.017 9.741,21.216 L5.716,23.412 C5.587,23.482 5.460,23.563 5.333,23.654 C2.686,21.276 1.018,17.829 1.018,14.000 ZM21.615,24.504 C21.437,24.633 21.256,24.758 21.072,24.878 C20.987,24.933 20.904,24.988 20.818,25.041 C20.577,25.190 20.333,25.331 20.084,25.464 C20.029,25.493 19.973,25.520 19.918,25.549 C19.344,25.842 18.751,26.095 18.142,26.300 C18.120,26.307 18.100,26.315 18.077,26.322 C17.758,26.428 17.435,26.522 17.108,26.603 C17.107,26.603 17.106,26.604 17.105,26.604 C16.775,26.685 16.441,26.753 16.105,26.808 C16.096,26.810 16.086,26.812 16.077,26.813 C15.762,26.865 15.443,26.902 15.123,26.930 C15.067,26.935 15.011,26.939 14.953,26.943 C14.637,26.966 14.319,26.982 14.000,26.982 C13.677,26.982 13.355,26.966 13.035,26.942 C12.979,26.938 12.925,26.934 12.869,26.929 C12.546,26.901 12.225,26.863 11.908,26.811 C11.893,26.808 11.879,26.806 11.864,26.803 C11.191,26.691 10.529,26.525 9.884,26.309 C9.865,26.302 9.844,26.295 9.824,26.289 C9.504,26.179 9.187,26.059 8.876,25.925 C8.874,25.924 8.872,25.924 8.869,25.922 C8.575,25.796 8.286,25.655 8.001,25.507 C7.964,25.488 7.927,25.469 7.890,25.449 C7.630,25.310 7.375,25.160 7.125,25.004 C7.050,24.957 6.976,24.909 6.903,24.862 C6.672,24.710 6.444,24.553 6.222,24.386 C6.199,24.369 6.177,24.351 6.154,24.333 C6.170,24.325 6.187,24.315 6.203,24.306 L10.229,22.110 C10.920,21.733 11.350,21.008 11.350,20.220 L11.350,18.386 L11.233,18.244 C11.222,18.231 10.121,16.893 9.705,15.080 L9.660,14.878 L9.486,14.766 C9.241,14.607 9.094,14.343 9.094,14.057 L9.094,12.252 C9.094,12.016 9.195,11.795 9.378,11.630 L9.546,11.478 L9.546,8.642 L9.541,8.576 C9.539,8.563 9.389,7.339 10.251,6.356 C10.988,5.517 12.250,5.091 14.000,5.091 C15.744,5.091 17.002,5.514 17.740,6.346 C18.602,7.319 18.461,8.566 18.459,8.577 L18.455,11.479 L18.622,11.631 C18.805,11.796 18.906,12.017 18.906,12.253 L18.906,14.058 C18.906,14.421 18.659,14.750 18.305,14.860 L18.052,14.938 L17.971,15.190 C17.670,16.123 17.242,16.985 16.700,17.751 C16.566,17.940 16.437,18.107 16.325,18.235 L16.199,18.379 L16.199,20.262 C16.199,21.082 16.655,21.821 17.389,22.187 L21.700,24.342 C21.727,24.356 21.754,24.370 21.781,24.384 C21.726,24.426 21.670,24.464 21.615,24.504 Z"
    />
</svg>